<svg id="svg" version="1.1" xmlns="http://www.w3.org/2000/svg" xmlns:xlink="http://www.w3.org/1999/xlink" width="400" height="400" viewBox="0, 0, 400,400"><g id="svgg"><path id="path0" d="M153.093 100.435 C 151.102 100.905,149.690 101.867,148.981 103.237 C 148.663 103.852,147.915 104.590,147.319 104.878 C 146.723 105.165,145.772 106.084,145.205 106.920 C 144.638 107.755,143.738 108.657,143.204 108.923 C 142.671 109.189,141.771 110.089,141.204 110.923 C 140.638 111.757,139.738 112.657,139.204 112.923 C 138.671 113.189,137.771 114.089,137.204 114.923 C 136.638 115.757,135.738 116.657,135.204 116.923 C 134.671 117.189,133.771 118.089,133.204 118.923 C 132.638 119.757,131.738 120.657,131.204 120.923 C 130.671 121.189,129.771 122.089,129.204 122.923 C 128.638 123.757,127.738 124.657,127.204 124.923 C 126.671 125.189,125.771 126.089,125.204 126.923 C 124.638 127.757,123.738 128.657,123.204 128.923 C 122.671 129.189,121.771 130.089,121.204 130.923 C 120.638 131.757,119.738 132.657,119.204 132.923 C 118.671 133.189,117.771 134.089,117.204 134.923 C 116.638 135.757,115.738 136.657,115.204 136.923 C 114.671 137.189,113.771 138.089,113.204 138.923 C 112.638 139.757,111.738 140.657,111.204 140.923 C 110.671 141.189,109.771 142.089,109.204 142.923 C 108.638 143.757,107.738 144.657,107.204 144.923 C 106.671 145.189,105.771 146.089,105.204 146.923 C 104.638 147.757,103.738 148.657,103.204 148.923 C 102.671 149.189,101.771 150.089,101.204 150.923 C 100.638 151.757,99.738 152.657,99.204 152.923 C 98.671 153.189,97.771 154.089,97.204 154.923 C 96.638 155.757,95.738 156.657,95.204 156.923 C 94.671 157.189,93.771 158.089,93.204 158.923 C 92.638 159.757,91.738 160.657,91.204 160.923 C 90.671 161.189,89.768 162.094,89.197 162.933 C 88.627 163.773,87.606 164.728,86.929 165.056 C 86.252 165.384,85.361 166.283,84.949 167.052 C 84.537 167.822,83.638 168.720,82.952 169.047 C 82.265 169.374,81.365 170.274,80.952 171.047 C 80.538 171.820,79.638 172.720,78.952 173.047 C 78.265 173.374,77.365 174.274,76.952 175.047 C 76.538 175.820,75.638 176.720,74.952 177.047 C 74.265 177.374,73.365 178.274,72.952 179.047 C 72.538 179.820,71.638 180.720,70.952 181.047 C 70.265 181.374,69.365 182.274,68.952 183.047 C 68.538 183.820,67.638 184.720,66.952 185.047 C 66.265 185.374,65.383 186.236,64.993 186.962 C 64.602 187.688,63.697 188.597,62.982 188.982 C 62.267 189.367,61.348 190.302,60.941 191.060 C 60.533 191.818,59.606 192.788,58.880 193.217 C 55.262 195.354,55.400 205.090,59.077 207.069 C 59.824 207.471,60.537 208.206,60.661 208.701 C 60.918 209.723,62.970 211.600,63.831 211.600 C 64.144 211.600,64.400 211.888,64.400 212.240 C 64.400 213.066,66.928 215.600,67.752 215.600 C 68.100 215.600,68.498 216.051,68.636 216.601 C 68.898 217.644,70.915 219.599,71.731 219.601 C 71.989 219.602,72.560 220.277,73.000 221.101 C 73.440 221.925,74.362 222.870,75.049 223.200 C 75.736 223.530,76.636 224.430,77.049 225.200 C 77.462 225.970,78.381 226.870,79.091 227.200 C 79.801 227.530,80.650 228.353,80.976 229.029 C 81.303 229.705,82.205 230.600,82.982 231.018 C 83.758 231.436,84.658 232.336,84.982 233.018 C 85.305 233.700,86.205 234.600,86.982 235.018 C 87.758 235.436,88.658 236.336,88.982 237.018 C 89.305 237.700,90.205 238.600,90.982 239.018 C 91.758 239.436,92.658 240.336,92.982 241.018 C 93.305 241.700,94.205 242.600,94.982 243.018 C 95.758 243.436,96.658 244.336,96.982 245.018 C 97.305 245.700,98.205 246.600,98.982 247.018 C 99.758 247.436,100.658 248.336,100.982 249.018 C 101.305 249.700,102.205 250.600,102.982 251.018 C 103.758 251.436,104.658 252.336,104.982 253.018 C 105.305 253.700,106.205 254.600,106.982 255.018 C 107.758 255.436,108.658 256.336,108.982 257.018 C 109.305 257.700,110.205 258.600,110.982 259.018 C 111.758 259.436,112.658 260.336,112.982 261.018 C 113.305 261.700,114.205 262.600,114.982 263.018 C 115.758 263.436,116.658 264.336,116.982 265.018 C 117.305 265.700,118.205 266.600,118.982 267.018 C 119.758 267.436,120.658 268.336,120.982 269.018 C 121.305 269.700,122.205 270.600,122.982 271.018 C 123.758 271.436,124.658 272.336,124.982 273.018 C 125.305 273.700,126.205 274.600,126.982 275.018 C 127.758 275.436,128.658 276.336,128.982 277.018 C 129.305 277.700,130.198 278.596,130.965 279.009 C 131.733 279.423,132.676 280.346,133.061 281.061 C 133.446 281.776,134.353 282.680,135.077 283.069 C 135.801 283.459,136.658 284.336,136.982 285.018 C 137.305 285.700,138.205 286.600,138.982 287.018 C 139.758 287.436,140.658 288.336,140.982 289.018 C 141.305 289.700,142.205 290.600,142.982 291.018 C 143.758 291.436,144.658 292.336,144.982 293.018 C 145.305 293.700,146.198 294.596,146.965 295.009 C 147.733 295.423,148.669 296.333,149.046 297.033 C 150.458 299.655,154.384 300.631,162.161 300.293 C 168.998 299.995,170.757 299.200,171.580 296.035 C 173.445 288.866,173.809 285.898,173.017 284.333 C 172.645 283.600,172.180 282.010,171.982 280.800 C 171.616 278.562,169.966 276.400,168.625 276.400 C 168.315 276.400,167.864 275.801,167.623 275.069 C 167.323 274.162,166.665 273.447,165.555 272.823 C 164.605 272.289,163.768 271.453,163.546 270.818 C 163.325 270.184,162.489 269.348,161.546 268.818 C 160.604 268.288,159.767 267.452,159.546 266.818 C 159.325 266.184,158.489 265.348,157.546 264.818 C 156.604 264.288,155.767 263.452,155.546 262.818 C 155.329 262.194,154.496 261.352,153.596 260.846 C 152.733 260.361,151.795 259.485,151.513 258.899 C 151.231 258.314,150.316 257.372,149.480 256.805 C 148.645 256.238,147.743 255.338,147.477 254.804 C 147.211 254.271,146.311 253.371,145.477 252.804 C 144.643 252.238,143.743 251.338,143.477 250.804 C 143.211 250.271,142.311 249.371,141.477 248.804 C 140.643 248.238,139.743 247.338,139.477 246.804 C 139.211 246.271,138.311 245.371,137.477 244.804 C 136.643 244.238,135.743 243.338,135.477 242.804 C 135.211 242.271,134.311 241.371,133.477 240.804 C 132.643 240.238,131.743 239.338,131.477 238.804 C 131.211 238.271,130.311 237.371,129.477 236.804 C 128.643 236.238,127.743 235.338,127.477 234.804 C 127.211 234.271,126.311 233.371,125.477 232.804 C 124.643 232.238,123.743 231.338,123.477 230.804 C 123.211 230.271,122.311 229.371,121.477 228.804 C 120.643 228.238,119.743 227.338,119.477 226.804 C 119.211 226.271,118.311 225.371,117.477 224.804 C 116.643 224.238,115.743 223.338,115.477 222.804 C 115.211 222.271,114.311 221.371,113.477 220.804 C 112.643 220.238,111.742 219.335,111.474 218.798 C 111.206 218.261,110.225 217.310,109.294 216.685 C 108.362 216.059,107.600 215.317,107.600 215.036 C 107.600 214.754,107.239 214.197,106.798 213.798 C 106.356 213.398,106.101 212.965,106.231 212.836 C 106.361 212.706,157.887 212.510,220.733 212.400 C 343.246 212.186,336.708 212.303,338.483 210.291 C 341.073 207.356,340.906 192.142,338.256 189.653 C 336.246 187.765,340.634 187.837,219.917 187.708 L 106.034 187.585 107.017 186.137 C 107.558 185.340,108.000 184.567,108.000 184.418 C 108.000 184.270,108.632 183.847,109.404 183.478 C 110.239 183.081,111.071 182.259,111.455 181.455 C 111.829 180.668,112.668 179.829,113.455 179.455 C 114.241 179.080,115.080 178.241,115.455 177.455 C 115.829 176.668,116.668 175.829,117.455 175.455 C 118.241 175.080,119.080 174.241,119.455 173.455 C 119.829 172.668,120.668 171.829,121.455 171.455 C 122.241 171.080,123.080 170.241,123.455 169.455 C 123.829 168.668,124.668 167.829,125.455 167.455 C 126.241 167.080,127.080 166.241,127.455 165.455 C 127.829 164.668,128.668 163.829,129.455 163.455 C 130.241 163.080,131.080 162.241,131.455 161.455 C 131.829 160.668,132.668 159.829,133.455 159.455 C 134.241 159.080,135.080 158.241,135.455 157.455 C 135.829 156.668,136.668 155.829,137.455 155.455 C 138.241 155.080,139.080 154.241,139.455 153.455 C 139.829 152.668,140.668 151.829,141.455 151.455 C 142.241 151.080,143.080 150.241,143.455 149.455 C 143.829 148.668,144.668 147.829,145.455 147.455 C 146.241 147.080,147.080 146.241,147.455 145.455 C 147.829 144.668,148.668 143.829,149.455 143.455 C 150.241 143.080,151.080 142.241,151.455 141.455 C 151.829 140.668,152.668 139.829,153.455 139.455 C 154.241 139.080,155.080 138.241,155.455 137.455 C 155.829 136.668,156.668 135.829,157.455 135.455 C 158.241 135.080,159.080 134.241,159.455 133.455 C 159.829 132.668,160.668 131.829,161.455 131.455 C 162.241 131.080,163.080 130.241,163.455 129.455 C 163.826 128.676,164.668 127.830,165.435 127.464 C 166.239 127.080,167.088 126.204,167.569 125.261 C 168.026 124.365,168.760 123.589,169.284 123.447 C 173.417 122.328,173.626 104.174,169.536 101.536 C 167.312 100.100,157.346 99.433,153.093 100.435 " stroke="none" fill="#040404" fill-rule="evenodd"></path><path id="path1" d="" stroke="none" fill="#080404" fill-rule="evenodd"></path><path id="path2" d="" stroke="none" fill="#080404" fill-rule="evenodd"></path><path id="path3" d="" stroke="none" fill="#080404" fill-rule="evenodd"></path><path id="path4" d="" stroke="none" fill="#080404" fill-rule="evenodd"></path></g></svg>