<svg id="svg" version="1.1" xmlns="http://www.w3.org/2000/svg" xmlns:xlink="http://www.w3.org/1999/xlink" width="400" height="400" viewBox="0, 0, 400,400"><g id="svgg"><path id="path0" d="M115.994 19.140 C 115.210 19.555,113.315 19.984,111.663 20.119 C 108.123 20.409,106.056 21.392,105.075 23.252 C 104.677 24.008,103.814 24.864,103.157 25.155 C 101.413 25.927,100.750 27.228,100.331 30.703 C 100.125 32.406,99.673 34.700,99.325 35.800 C 98.231 39.267,98.163 42.501,99.147 44.388 C 99.616 45.288,100.001 46.604,100.002 47.312 C 100.005 48.650,100.541 51.025,101.257 52.871 C 101.486 53.460,102.348 54.389,103.173 54.935 C 103.998 55.481,104.892 56.456,105.160 57.103 C 105.428 57.750,106.334 58.665,107.174 59.137 C 108.014 59.609,108.914 60.509,109.174 61.137 C 109.434 61.765,110.334 62.665,111.174 63.137 C 112.014 63.609,112.914 64.509,113.174 65.137 C 113.434 65.765,114.334 66.665,115.174 67.137 C 116.014 67.609,116.914 68.509,117.174 69.137 C 117.434 69.765,118.334 70.665,119.174 71.137 C 120.014 71.609,120.914 72.509,121.174 73.137 C 121.434 73.765,122.334 74.665,123.174 75.137 C 124.014 75.609,124.916 76.515,125.179 77.150 C 125.443 77.785,126.283 78.641,127.048 79.053 C 127.812 79.464,128.777 80.374,129.191 81.075 C 129.605 81.777,130.475 82.625,131.124 82.961 C 131.773 83.296,132.673 84.196,133.124 84.961 C 133.575 85.725,134.493 86.635,135.165 86.982 C 135.837 87.329,136.671 88.163,137.018 88.835 C 137.365 89.507,138.275 90.425,139.039 90.876 C 139.804 91.327,140.704 92.227,141.039 92.876 C 141.375 93.525,142.275 94.425,143.039 94.876 C 143.804 95.327,144.704 96.227,145.039 96.876 C 145.375 97.525,146.275 98.425,147.039 98.876 C 147.804 99.327,148.698 100.216,149.026 100.850 C 149.354 101.485,150.359 102.469,151.258 103.037 C 152.157 103.604,152.982 104.411,153.092 104.829 C 153.201 105.248,154.170 106.222,155.245 106.994 C 156.320 107.767,157.200 108.652,157.200 108.962 C 157.200 109.272,158.100 110.172,159.200 110.962 C 160.300 111.752,161.200 112.652,161.200 112.962 C 161.200 113.272,162.100 114.172,163.200 114.962 C 164.300 115.752,165.200 116.652,165.200 116.962 C 165.200 117.272,166.100 118.172,167.200 118.962 C 168.300 119.752,169.200 120.652,169.200 120.962 C 169.200 121.272,170.100 122.172,171.200 122.962 C 172.300 123.752,173.200 124.652,173.200 124.962 C 173.200 125.272,174.100 126.172,175.200 126.962 C 176.300 127.752,177.200 128.652,177.200 128.962 C 177.200 129.272,178.100 130.172,179.200 130.962 C 180.300 131.752,181.200 132.652,181.200 132.962 C 181.200 133.272,182.100 134.172,183.200 134.962 C 184.300 135.752,185.200 136.652,185.200 136.962 C 185.200 137.272,186.100 138.172,187.200 138.962 C 188.300 139.752,189.200 140.652,189.200 140.962 C 189.200 141.272,190.100 142.172,191.200 142.962 C 192.300 143.752,193.200 144.652,193.200 144.962 C 193.200 145.272,194.100 146.172,195.200 146.962 C 196.300 147.752,197.200 148.652,197.200 148.962 C 197.200 149.272,198.100 150.172,199.200 150.962 C 200.300 151.752,201.200 152.652,201.200 152.962 C 201.200 153.272,202.100 154.172,203.200 154.962 C 204.300 155.752,205.200 156.652,205.200 156.962 C 205.200 157.272,206.100 158.172,207.200 158.962 C 208.300 159.752,209.200 160.652,209.200 160.962 C 209.200 161.272,210.100 162.172,211.200 162.962 C 212.300 163.752,213.200 164.652,213.200 164.962 C 213.200 165.272,214.100 166.172,215.200 166.962 C 216.300 167.752,217.200 168.652,217.200 168.962 C 217.200 169.272,218.100 170.172,219.200 170.962 C 220.300 171.752,221.200 172.652,221.200 172.962 C 221.200 173.272,222.100 174.172,223.200 174.962 C 224.300 175.752,225.200 176.652,225.200 176.962 C 225.200 177.272,226.100 178.172,227.200 178.962 C 228.300 179.752,229.200 180.652,229.200 180.962 C 229.200 181.272,230.100 182.172,231.200 182.962 C 232.300 183.752,233.200 184.652,233.200 184.962 C 233.200 185.272,234.100 186.172,235.200 186.962 C 236.300 187.752,237.200 188.652,237.200 188.962 C 237.200 189.272,238.100 190.172,239.200 190.962 C 240.300 191.752,241.200 192.652,241.200 192.962 C 241.200 193.272,242.100 194.172,243.200 194.962 C 244.300 195.752,245.200 196.666,245.200 196.994 C 245.200 197.321,245.920 198.065,246.800 198.647 C 248.751 199.939,248.765 200.109,247.005 201.197 C 246.237 201.671,245.333 202.631,244.995 203.330 C 244.658 204.028,243.801 204.886,243.091 205.236 C 242.382 205.586,241.474 206.486,241.075 207.236 C 240.676 207.986,239.776 208.886,239.075 209.236 C 238.374 209.586,237.474 210.486,237.075 211.236 C 236.676 211.986,235.776 212.886,235.075 213.236 C 234.374 213.586,233.474 214.486,233.075 215.236 C 232.676 215.986,231.776 216.886,231.075 217.236 C 230.374 217.586,229.474 218.486,229.075 219.236 C 228.676 219.986,227.776 220.886,227.075 221.236 C 226.374 221.586,225.474 222.486,225.075 223.236 C 224.676 223.986,223.776 224.886,223.075 225.236 C 222.374 225.586,221.474 226.486,221.075 227.236 C 220.676 227.986,219.776 228.886,219.075 229.236 C 218.374 229.586,217.474 230.486,217.075 231.236 C 216.676 231.986,215.776 232.886,215.075 233.236 C 214.374 233.586,213.474 234.486,213.075 235.236 C 212.676 235.986,211.776 236.886,211.075 237.236 C 210.374 237.586,209.474 238.486,209.075 239.236 C 208.676 239.986,207.776 240.886,207.075 241.236 C 206.374 241.586,205.474 242.486,205.075 243.236 C 204.676 243.986,203.776 244.886,203.075 245.236 C 202.374 245.586,201.474 246.486,201.075 247.236 C 200.676 247.986,199.776 248.886,199.075 249.236 C 198.374 249.586,197.474 250.486,197.075 251.236 C 196.676 251.986,195.776 252.886,195.075 253.236 C 194.374 253.586,193.474 254.486,193.075 255.236 C 192.676 255.986,191.776 256.886,191.075 257.236 C 190.374 257.586,189.474 258.486,189.075 259.236 C 188.676 259.986,187.776 260.886,187.075 261.236 C 186.374 261.586,185.474 262.486,185.075 263.236 C 184.676 263.986,183.776 264.886,183.075 265.236 C 182.374 265.586,181.474 266.486,181.075 267.236 C 180.676 267.986,179.776 268.886,179.075 269.236 C 178.374 269.586,177.474 270.486,177.075 271.236 C 176.676 271.986,175.776 272.886,175.075 273.236 C 174.374 273.586,173.474 274.486,173.075 275.236 C 172.676 275.986,171.776 276.886,171.075 277.236 C 170.374 277.586,169.474 278.486,169.075 279.236 C 168.676 279.986,167.776 280.886,167.075 281.236 C 166.374 281.586,165.474 282.486,165.075 283.236 C 164.676 283.986,163.776 284.886,163.075 285.236 C 162.374 285.586,161.474 286.486,161.075 287.236 C 160.676 287.986,159.776 288.886,159.075 289.236 C 158.374 289.586,157.474 290.486,157.075 291.236 C 156.676 291.986,155.776 292.886,155.075 293.236 C 154.374 293.586,153.472 294.497,153.070 295.260 C 152.657 296.044,151.835 296.838,151.179 297.086 C 150.540 297.327,149.632 298.177,149.161 298.976 C 148.689 299.775,147.773 300.704,147.124 301.039 C 146.475 301.375,145.575 302.275,145.124 303.039 C 144.673 303.804,143.773 304.704,143.124 305.039 C 142.475 305.375,141.585 306.257,141.147 307.000 C 140.709 307.743,139.743 308.709,139.000 309.147 C 138.257 309.585,137.375 310.475,137.039 311.124 C 136.704 311.773,135.804 312.673,135.039 313.124 C 134.275 313.575,133.375 314.475,133.039 315.124 C 132.704 315.773,131.793 316.679,131.015 317.138 C 130.236 317.597,129.316 318.564,128.968 319.287 C 128.621 320.009,127.766 320.870,127.068 321.200 C 126.371 321.530,125.462 322.430,125.049 323.200 C 124.636 323.970,123.736 324.870,123.049 325.200 C 122.362 325.530,121.462 326.430,121.049 327.200 C 120.636 327.970,119.736 328.870,119.049 329.200 C 118.362 329.530,117.462 330.430,117.049 331.200 C 116.636 331.970,115.736 332.870,115.049 333.200 C 114.362 333.530,113.462 334.430,113.049 335.200 C 112.636 335.970,111.736 336.870,111.049 337.200 C 110.362 337.530,109.462 338.430,109.049 339.200 C 108.636 339.970,107.736 340.870,107.049 341.200 C 106.362 341.530,105.440 342.478,105.000 343.307 C 104.560 344.136,103.727 345.025,103.149 345.283 C 100.986 346.248,100.132 349.156,99.770 356.787 C 99.277 367.172,100.340 373.156,102.964 374.778 C 103.764 375.272,104.681 376.182,105.000 376.800 C 107.621 381.869,132.098 382.049,134.790 377.019 C 135.100 376.439,136.024 375.588,136.844 375.127 C 137.663 374.667,138.645 373.712,139.026 373.004 C 139.407 372.297,140.303 371.403,141.018 371.018 C 141.733 370.633,142.633 369.733,143.018 369.018 C 143.403 368.303,144.303 367.403,145.018 367.018 C 145.733 366.633,146.633 365.733,147.018 365.018 C 147.403 364.303,148.303 363.403,149.018 363.018 C 149.733 362.633,150.633 361.733,151.018 361.018 C 151.403 360.303,152.303 359.403,153.018 359.018 C 153.733 358.633,154.633 357.733,155.018 357.018 C 155.403 356.303,156.303 355.403,157.018 355.018 C 157.733 354.633,158.633 353.733,159.018 353.018 C 159.403 352.303,160.303 351.403,161.018 351.018 C 161.733 350.633,162.633 349.733,163.018 349.018 C 163.403 348.303,164.303 347.403,165.018 347.018 C 165.733 346.633,166.633 345.733,167.018 345.018 C 167.403 344.303,168.303 343.403,169.018 343.018 C 169.733 342.633,170.633 341.733,171.018 341.018 C 171.403 340.303,172.303 339.403,173.018 339.018 C 173.733 338.633,174.633 337.733,175.018 337.018 C 175.403 336.303,176.303 335.403,177.018 335.018 C 177.733 334.633,178.633 333.733,179.018 333.018 C 179.403 332.303,180.303 331.403,181.018 331.018 C 181.733 330.633,182.633 329.733,183.018 329.018 C 183.403 328.303,184.303 327.403,185.018 327.018 C 185.733 326.633,186.633 325.733,187.018 325.018 C 187.403 324.303,188.303 323.403,189.018 323.018 C 189.733 322.633,190.633 321.733,191.018 321.018 C 191.403 320.303,192.303 319.403,193.018 319.018 C 193.733 318.633,194.633 317.733,195.018 317.018 C 195.403 316.303,196.303 315.403,197.018 315.018 C 197.733 314.633,198.633 313.733,199.018 313.018 C 199.403 312.303,200.303 311.403,201.018 311.018 C 201.733 310.633,202.633 309.733,203.018 309.018 C 203.403 308.303,204.303 307.403,205.018 307.018 C 205.733 306.633,206.633 305.733,207.018 305.018 C 207.403 304.303,208.303 303.403,209.018 303.018 C 209.733 302.633,210.633 301.733,211.018 301.018 C 211.403 300.303,212.303 299.403,213.018 299.018 C 213.733 298.633,214.633 297.733,215.018 297.018 C 215.403 296.303,216.303 295.403,217.018 295.018 C 217.733 294.633,218.633 293.733,219.018 293.018 C 219.403 292.303,220.303 291.403,221.018 291.018 C 221.733 290.633,222.633 289.733,223.018 289.018 C 223.403 288.303,224.303 287.403,225.018 287.018 C 225.733 286.633,226.633 285.733,227.018 285.018 C 227.403 284.303,228.303 283.403,229.018 283.018 C 229.733 282.633,230.633 281.733,231.018 281.018 C 231.403 280.303,232.303 279.403,233.018 279.018 C 233.733 278.633,234.633 277.733,235.018 277.018 C 235.403 276.303,236.303 275.403,237.018 275.018 C 237.733 274.633,238.633 273.733,239.018 273.018 C 239.403 272.303,240.303 271.403,241.018 271.018 C 241.733 270.633,242.633 269.733,243.018 269.018 C 243.403 268.303,244.303 267.403,245.018 267.018 C 245.733 266.633,246.633 265.733,247.018 265.018 C 247.403 264.303,248.303 263.403,249.018 263.018 C 249.733 262.633,250.633 261.733,251.018 261.018 C 251.403 260.303,252.303 259.403,253.018 259.018 C 253.733 258.633,254.633 257.733,255.018 257.018 C 255.403 256.303,256.303 255.403,257.018 255.018 C 257.733 254.633,258.633 253.733,259.018 253.018 C 259.403 252.303,260.320 251.394,261.056 250.998 C 261.791 250.602,262.736 249.696,263.155 248.986 C 263.575 248.275,264.465 247.370,265.135 246.975 C 265.804 246.580,266.659 245.685,267.035 244.987 C 267.411 244.289,268.303 243.403,269.018 243.018 C 269.733 242.633,270.633 241.733,271.018 241.018 C 271.403 240.303,272.303 239.403,273.018 239.018 C 273.733 238.633,274.633 237.733,275.018 237.018 C 275.403 236.303,276.303 235.403,277.018 235.018 C 277.733 234.633,278.633 233.733,279.018 233.018 C 279.403 232.303,280.303 231.403,281.018 231.018 C 281.733 230.633,282.633 229.733,283.018 229.018 C 283.403 228.303,284.303 227.403,285.018 227.018 C 285.733 226.633,286.633 225.733,287.018 225.018 C 287.403 224.303,288.303 223.403,289.018 223.018 C 289.733 222.633,290.633 221.733,291.018 221.018 C 291.403 220.303,292.337 219.385,293.092 218.978 C 293.848 218.571,294.795 217.594,295.197 216.806 C 295.599 216.018,296.409 215.116,296.998 214.801 C 301.800 212.231,301.781 187.451,296.975 185.261 C 296.484 185.038,295.674 184.129,295.175 183.242 C 294.677 182.355,293.713 181.364,293.034 181.041 C 292.356 180.717,291.462 179.820,291.048 179.047 C 290.635 178.274,289.735 177.374,289.048 177.047 C 288.362 176.720,287.462 175.820,287.048 175.047 C 286.635 174.274,285.735 173.374,285.048 173.047 C 284.362 172.720,283.462 171.820,283.048 171.047 C 282.635 170.274,281.735 169.374,281.048 169.047 C 280.362 168.720,279.462 167.820,279.048 167.047 C 278.635 166.274,277.735 165.374,277.048 165.047 C 276.362 164.720,275.462 163.820,275.048 163.047 C 274.635 162.274,273.735 161.374,273.048 161.047 C 272.362 160.720,271.462 159.820,271.048 159.047 C 270.635 158.274,269.735 157.374,269.048 157.047 C 268.362 156.720,267.462 155.820,267.048 155.047 C 266.635 154.274,265.735 153.374,265.048 153.047 C 264.362 152.720,263.462 151.820,263.048 151.047 C 262.635 150.274,261.735 149.374,261.048 149.047 C 260.362 148.720,259.462 147.820,259.048 147.047 C 258.635 146.274,257.735 145.374,257.048 145.047 C 256.362 144.720,255.462 143.820,255.048 143.047 C 254.635 142.274,253.735 141.374,253.048 141.047 C 252.362 140.720,251.462 139.820,251.048 139.047 C 250.635 138.274,249.735 137.374,249.048 137.047 C 248.362 136.720,247.462 135.820,247.048 135.047 C 246.635 134.274,245.735 133.374,245.048 133.047 C 244.362 132.720,243.462 131.820,243.048 131.047 C 242.635 130.274,241.735 129.374,241.048 129.047 C 240.362 128.720,239.462 127.820,239.048 127.047 C 238.635 126.274,237.735 125.374,237.048 125.047 C 236.362 124.720,235.462 123.820,235.048 123.047 C 234.635 122.274,233.735 121.374,233.048 121.047 C 232.362 120.720,231.462 119.820,231.048 119.047 C 230.635 118.274,229.735 117.374,229.048 117.047 C 228.362 116.720,227.462 115.820,227.048 115.047 C 226.635 114.274,225.735 113.374,225.048 113.047 C 224.362 112.720,223.462 111.820,223.048 111.047 C 222.635 110.274,221.735 109.374,221.048 109.047 C 220.362 108.720,219.462 107.820,219.048 107.047 C 218.635 106.274,217.735 105.374,217.048 105.047 C 216.362 104.720,215.462 103.820,215.048 103.047 C 214.635 102.274,213.735 101.374,213.048 101.047 C 212.362 100.720,211.462 99.820,211.048 99.047 C 210.635 98.274,209.735 97.374,209.048 97.047 C 208.362 96.720,207.462 95.820,207.048 95.047 C 206.635 94.274,205.735 93.374,205.048 93.047 C 204.362 92.720,203.462 91.820,203.048 91.047 C 202.635 90.274,201.735 89.374,201.048 89.047 C 200.362 88.720,199.462 87.820,199.048 87.047 C 198.635 86.274,197.735 85.374,197.048 85.047 C 196.362 84.720,195.462 83.820,195.048 83.047 C 194.635 82.274,193.735 81.374,193.048 81.047 C 192.362 80.720,191.462 79.820,191.048 79.047 C 190.635 78.274,189.735 77.374,189.048 77.047 C 188.362 76.720,187.462 75.820,187.048 75.047 C 186.635 74.274,185.735 73.374,185.048 73.047 C 184.362 72.720,183.462 71.820,183.048 71.047 C 182.635 70.274,181.735 69.374,181.048 69.047 C 180.362 68.720,179.462 67.820,179.048 67.047 C 178.635 66.274,177.735 65.374,177.048 65.047 C 176.362 64.720,175.462 63.820,175.048 63.047 C 174.635 62.274,173.735 61.374,173.048 61.047 C 172.362 60.720,171.462 59.820,171.048 59.047 C 170.635 58.274,169.735 57.374,169.048 57.047 C 168.362 56.720,167.462 55.820,167.048 55.047 C 166.635 54.274,165.735 53.374,165.048 53.047 C 164.362 52.720,163.462 51.820,163.048 51.047 C 162.635 50.274,161.735 49.374,161.048 49.047 C 160.362 48.720,159.462 47.820,159.048 47.047 C 158.635 46.274,157.735 45.374,157.048 45.047 C 156.362 44.720,155.462 43.820,155.048 43.047 C 154.635 42.274,153.735 41.374,153.048 41.047 C 152.362 40.720,151.462 39.820,151.048 39.047 C 150.635 38.274,149.735 37.374,149.048 37.047 C 148.362 36.720,147.462 35.820,147.048 35.047 C 146.635 34.274,145.735 33.374,145.048 33.047 C 144.362 32.720,143.462 31.820,143.048 31.047 C 142.635 30.274,141.735 29.374,141.048 29.047 C 140.362 28.720,139.462 27.820,139.048 27.047 C 138.631 26.267,137.691 25.355,136.936 24.996 C 136.187 24.641,135.189 23.762,134.717 23.042 C 133.385 21.010,130.985 20.234,124.669 19.794 C 122.507 19.644,120.257 19.270,119.669 18.963 C 118.258 18.227,117.661 18.255,115.994 19.140 " stroke="none" fill="#040404" fill-rule="evenodd"></path><path id="path1" d="" stroke="none" fill="#080404" fill-rule="evenodd"></path><path id="path2" d="" stroke="none" fill="#080404" fill-rule="evenodd"></path><path id="path3" d="" stroke="none" fill="#080404" fill-rule="evenodd"></path><path id="path4" d="" stroke="none" fill="#080404" fill-rule="evenodd"></path></g></svg>