<svg id="svg" version="1.1" xmlns="http://www.w3.org/2000/svg" xmlns:xlink="http://www.w3.org/1999/xlink" width="400" height="400" viewBox="0, 0, 400,400"><g id="svgg"><path id="path0" d="M252.346 71.305 C 251.766 71.797,250.984 72.749,250.607 73.419 C 250.231 74.090,249.412 74.865,248.787 75.142 C 247.004 75.931,245.622 77.169,244.466 79.011 C 243.880 79.946,242.471 81.442,241.337 82.336 C 240.202 83.229,238.859 84.698,238.352 85.600 C 237.845 86.502,236.794 87.619,236.015 88.082 C 235.237 88.546,233.338 90.202,231.796 91.762 C 230.254 93.323,228.487 94.933,227.868 95.340 C 227.249 95.747,226.202 96.959,225.541 98.034 C 224.880 99.109,223.587 100.492,222.669 101.108 C 221.751 101.723,220.421 103.109,219.713 104.188 C 218.919 105.400,217.618 106.645,216.313 107.445 C 214.985 108.259,213.820 109.382,213.177 110.470 C 212.562 111.508,211.482 112.572,210.476 113.131 C 209.453 113.698,208.397 114.746,207.771 115.814 C 206.797 117.475,205.368 118.893,203.020 120.528 C 202.445 120.929,201.542 121.941,201.014 122.777 C 200.486 123.614,199.160 124.848,198.067 125.521 C 196.974 126.193,195.747 127.244,195.340 127.857 C 193.782 130.201,180.209 143.780,177.886 145.318 C 177.289 145.713,176.179 147.010,175.418 148.199 C 174.657 149.388,173.532 150.624,172.917 150.945 C 171.695 151.583,170.119 153.197,169.081 154.873 C 168.716 155.463,167.408 156.616,166.175 157.434 C 164.942 158.253,163.496 159.613,162.963 160.458 C 162.430 161.303,161.303 162.430,160.458 162.963 C 159.613 163.496,158.253 164.942,157.434 166.175 C 156.616 167.408,155.463 168.716,154.873 169.081 C 153.220 170.103,151.193 172.082,150.558 173.296 C 150.242 173.899,149.300 174.741,148.464 175.167 C 147.629 175.594,146.327 176.685,145.572 177.593 C 141.991 181.901,131.901 191.991,127.593 195.572 C 126.685 196.327,125.610 197.597,125.203 198.394 C 124.794 199.196,123.676 200.342,122.702 200.957 C 121.734 201.569,120.368 202.946,119.668 204.016 C 118.929 205.145,117.458 206.583,116.163 207.442 C 114.937 208.256,113.496 209.613,112.963 210.458 C 112.430 211.303,111.303 212.430,110.458 212.963 C 109.613 213.496,108.256 214.937,107.442 216.163 C 106.583 217.458,105.145 218.929,104.016 219.668 C 102.946 220.368,101.569 221.734,100.957 222.702 C 100.345 223.671,99.204 224.793,98.422 225.197 C 96.627 226.123,95.431 227.250,94.236 229.143 C 93.718 229.963,92.470 231.256,91.461 232.017 C 90.133 233.018,89.228 234.197,88.184 236.289 C 87.391 237.878,86.211 239.624,85.563 240.170 L 84.385 241.161 85.868 241.439 C 89.447 242.111,94.334 244.582,95.169 246.142 C 95.455 246.676,96.073 247.299,96.544 247.528 C 97.015 247.757,98.591 248.494,100.046 249.167 C 101.501 249.839,103.596 251.247,104.701 252.295 C 106.905 254.385,107.910 255.253,110.008 256.879 C 113.013 259.209,118.709 265.137,120.406 267.700 C 121.389 269.185,122.320 270.400,122.474 270.400 C 122.628 270.400,123.942 271.408,125.394 272.639 C 128.707 275.450,129.555 275.359,132.154 271.913 C 132.771 271.095,134.075 269.925,135.053 269.313 C 136.030 268.701,137.376 267.355,138.043 266.322 C 138.710 265.289,140.106 263.795,141.145 263.003 C 142.185 262.210,143.454 260.884,143.966 260.056 C 144.477 259.228,145.870 257.931,147.061 257.175 C 148.378 256.339,149.718 255.040,150.481 253.859 C 151.173 252.789,152.648 251.310,153.768 250.563 C 154.989 249.749,156.349 248.348,157.175 247.052 C 157.931 245.866,159.228 244.477,160.056 243.966 C 160.884 243.454,162.210 242.185,163.003 241.145 C 163.795 240.106,165.289 238.710,166.322 238.043 C 167.355 237.376,168.719 236.002,169.352 234.991 C 169.986 233.979,171.394 232.552,172.480 231.820 C 173.734 230.976,174.761 229.873,175.291 228.802 C 176.095 227.178,178.785 224.800,179.818 224.800 C 180.092 224.800,180.903 223.886,181.620 222.769 C 182.345 221.639,183.800 220.148,184.900 219.407 C 185.987 218.675,187.467 217.204,188.189 216.138 C 188.911 215.072,190.293 213.612,191.261 212.893 C 192.228 212.175,193.442 210.903,193.958 210.068 C 194.474 209.233,195.866 207.931,197.052 207.175 C 198.348 206.349,199.749 204.989,200.563 203.768 C 201.310 202.648,202.789 201.173,203.859 200.481 C 205.040 199.718,206.339 198.378,207.175 197.061 C 207.931 195.870,209.233 194.474,210.068 193.958 C 210.903 193.442,212.175 192.228,212.893 191.261 C 213.612 190.293,215.072 188.911,216.138 188.189 C 217.204 187.467,218.675 185.987,219.407 184.900 C 220.148 183.800,221.639 182.345,222.769 181.620 C 223.886 180.903,224.800 180.092,224.800 179.818 C 224.800 178.785,227.178 176.095,228.802 175.291 C 229.886 174.754,230.979 173.730,231.858 172.425 C 232.610 171.308,233.915 169.959,234.758 169.427 C 235.600 168.895,236.720 167.877,237.245 167.164 C 237.770 166.452,239.489 164.594,241.065 163.035 C 242.640 161.476,244.132 159.795,244.379 159.300 C 244.626 158.805,245.033 158.400,245.283 158.400 C 245.533 158.400,246.021 158.157,246.369 157.861 C 246.716 157.564,247.871 157.086,248.935 156.799 C 250.000 156.511,251.469 155.870,252.200 155.374 L 253.529 154.473 254.365 155.363 C 254.826 155.853,256.237 156.715,257.501 157.279 C 265.076 160.656,265.344 160.676,267.327 158.005 C 268.167 156.874,269.670 155.431,270.666 154.799 C 271.774 154.096,273.018 152.787,273.866 151.432 C 274.685 150.122,275.901 148.827,276.837 148.269 C 277.707 147.750,278.937 146.511,279.568 145.515 C 280.737 143.671,282.862 141.795,284.069 141.541 C 284.437 141.463,285.337 140.500,286.069 139.400 C 286.801 138.300,288.300 136.801,289.400 136.069 C 290.500 135.337,291.463 134.437,291.541 134.069 C 291.793 132.869,293.667 130.740,295.483 129.588 C 296.461 128.968,297.760 127.682,298.370 126.730 C 298.980 125.779,300.231 124.550,301.151 124.000 C 303.970 122.314,303.907 122.422,304.093 118.911 L 304.266 115.622 302.360 113.674 C 300.677 111.956,300.297 111.222,299.126 107.434 C 297.798 103.133,297.536 102.680,295.511 101.171 C 294.912 100.725,293.750 99.081,292.929 97.518 C 291.972 95.697,290.991 94.414,290.198 93.946 C 289.517 93.544,288.339 92.384,287.580 91.369 C 286.821 90.353,285.441 89.076,284.514 88.531 C 283.586 87.986,281.940 86.518,280.856 85.270 C 279.425 83.623,278.352 82.807,276.942 82.297 C 275.555 81.795,274.600 81.078,273.600 79.790 C 272.216 78.007,265.540 74.800,263.214 74.800 C 262.802 74.800,261.729 74.092,260.829 73.228 C 259.554 72.003,258.684 71.554,256.896 71.200 C 255.633 70.950,254.330 70.670,254.000 70.577 C 253.670 70.485,252.926 70.813,252.346 71.305 " stroke="none" fill="#e8eaea" fill-rule="evenodd"></path><path id="path1" d="M310.400 23.184 C 298.198 25.426,296.970 25.823,294.156 28.440 C 292.792 29.710,290.753 31.216,289.624 31.788 C 288.495 32.360,286.903 33.426,286.086 34.157 L 284.600 35.487 281.338 35.240 C 279.067 35.068,277.842 34.781,277.307 34.297 C 276.341 33.423,276.195 33.427,275.316 34.356 C 274.560 35.155,271.313 36.400,269.986 36.400 C 268.780 36.400,267.601 37.830,267.594 39.300 C 267.584 41.334,266.382 42.400,264.096 42.400 C 262.124 42.400,261.199 43.816,261.206 46.826 C 261.214 50.046,261.266 50.122,264.629 51.798 C 266.153 52.558,267.850 53.543,268.400 53.987 C 268.950 54.432,271.516 55.596,274.101 56.575 C 277.266 57.773,279.423 58.869,280.701 59.929 C 281.746 60.794,283.770 62.063,285.200 62.748 C 286.630 63.433,288.809 64.940,290.041 66.097 C 291.274 67.253,293.434 69.052,294.841 70.094 C 300.436 74.236,308.400 82.298,308.400 83.818 C 308.400 83.979,309.109 84.879,309.975 85.819 C 310.841 86.759,312.016 88.447,312.585 89.571 C 313.155 90.695,314.494 92.578,315.560 93.756 C 316.627 94.934,318.076 97.069,318.782 98.502 C 319.487 99.935,320.575 101.713,321.199 102.453 L 322.335 103.800 323.867 102.342 C 324.710 101.541,326.120 100.522,327.000 100.079 C 328.659 99.244,330.203 97.778,331.378 95.925 C 331.752 95.334,333.176 94.030,334.542 93.028 C 335.907 92.025,337.343 90.666,337.732 90.008 C 338.120 89.350,339.105 88.314,339.919 87.706 C 341.771 86.323,342.076 85.941,343.611 83.093 C 344.295 81.824,345.567 79.962,346.438 78.956 C 353.061 71.304,353.195 47.788,346.657 40.413 C 345.526 39.137,344.250 37.397,343.823 36.547 C 342.519 33.952,341.226 32.430,339.640 31.621 C 338.808 31.196,337.323 30.033,336.340 29.036 C 334.180 26.845,330.718 25.224,327.200 24.757 C 325.770 24.567,323.430 24.139,322.000 23.805 C 318.802 23.060,312.820 22.739,310.400 23.184 " stroke="none" fill="#2dcc74" fill-rule="evenodd"></path><path id="path2" d="M265.787 32.747 C 265.684 32.849,265.600 33.308,265.600 33.767 C 265.600 34.476,265.364 34.595,264.017 34.569 C 261.989 34.529,260.017 35.357,259.939 36.281 C 259.906 36.676,259.836 37.180,259.785 37.400 C 259.734 37.620,259.672 38.475,259.646 39.300 C 259.601 40.757,259.557 40.800,258.100 40.806 C 257.275 40.809,256.794 40.944,257.031 41.106 C 257.275 41.272,257.449 42.594,257.431 44.140 C 257.403 46.657,257.480 46.921,258.382 47.394 C 259.959 48.220,261.200 47.432,261.200 45.606 C 261.200 43.835,262.522 42.400,264.152 42.400 C 266.382 42.400,267.584 41.317,267.594 39.300 C 267.602 37.569,268.690 36.567,270.926 36.232 C 273.021 35.918,273.651 34.932,272.685 33.478 C 272.138 32.653,266.480 32.054,265.787 32.747 M251.800 69.513 C 251.140 69.929,249.895 71.130,249.034 72.183 C 248.172 73.235,246.912 74.329,246.234 74.613 C 244.880 75.180,243.928 76.147,242.265 78.642 C 241.664 79.546,240.763 80.471,240.263 80.698 C 239.764 80.926,238.826 81.777,238.178 82.590 C 236.675 84.476,234.476 86.675,232.590 88.178 C 231.777 88.826,230.926 89.764,230.698 90.263 C 230.471 90.763,229.546 91.664,228.642 92.265 C 226.149 93.927,225.180 94.880,224.616 96.228 C 224.333 96.903,223.516 97.893,222.801 98.428 C 222.086 98.962,220.735 100.188,219.800 101.150 C 217.135 103.894,215.572 105.448,210.206 110.687 C 207.453 113.375,205.200 115.754,205.200 115.974 C 205.200 116.195,204.213 117.104,203.007 117.995 C 201.801 118.886,200.118 120.556,199.267 121.707 C 198.416 122.858,197.020 124.168,196.163 124.618 C 195.307 125.067,193.943 126.327,193.133 127.418 C 192.322 128.508,191.477 129.546,191.254 129.725 C 190.904 130.006,189.095 131.821,185.544 135.453 C 185.025 135.984,183.661 137.244,182.514 138.251 C 181.366 139.259,180.331 140.386,180.214 140.755 C 180.097 141.125,179.416 141.761,178.701 142.170 C 176.770 143.273,175.222 144.814,174.358 146.494 C 173.936 147.316,173.097 148.293,172.495 148.666 C 170.840 149.689,168.405 152.066,167.768 153.278 C 167.457 153.871,166.257 154.999,165.101 155.784 C 163.946 156.570,162.640 157.689,162.200 158.271 C 161.179 159.620,159.620 161.179,158.271 162.200 C 157.689 162.640,156.593 163.911,155.836 165.023 C 155.079 166.136,153.625 167.574,152.605 168.218 C 151.556 168.881,150.143 170.307,149.350 171.501 C 148.385 172.955,147.366 173.909,146.075 174.565 C 144.733 175.246,143.815 176.127,142.847 177.661 C 142.103 178.841,140.787 180.253,139.922 180.799 C 139.058 181.345,137.750 182.697,137.016 183.802 C 136.282 184.908,134.808 186.379,133.741 187.071 C 132.673 187.764,131.351 189.042,130.803 189.912 C 130.254 190.782,128.847 192.101,127.676 192.842 C 126.220 193.764,125.224 194.783,124.526 196.065 C 123.892 197.230,122.764 198.442,121.545 199.269 C 120.466 200.001,118.977 201.464,118.235 202.520 C 117.493 203.575,116.078 205.015,115.091 205.720 C 114.104 206.424,112.779 207.612,112.148 208.359 C 110.709 210.064,110.064 210.709,108.359 212.148 C 107.612 212.779,106.428 214.098,105.729 215.077 C 105.030 216.057,103.617 217.457,102.588 218.188 C 101.560 218.920,100.100 220.391,99.346 221.459 C 98.591 222.527,97.150 223.877,96.145 224.459 C 95.081 225.075,93.670 226.429,92.772 227.695 C 91.922 228.893,90.538 230.350,89.696 230.934 C 88.853 231.518,87.722 232.730,87.182 233.629 C 86.642 234.528,85.558 236.104,84.772 237.131 C 81.737 241.105,81.779 240.938,83.506 242.135 C 84.343 242.715,86.368 243.645,88.008 244.203 C 90.231 244.959,91.449 245.666,92.795 246.982 C 93.788 247.953,95.898 249.403,97.483 250.204 C 99.069 251.005,101.442 252.620,102.755 253.792 C 104.069 254.964,106.012 256.518,107.072 257.245 C 109.976 259.237,116.476 265.957,118.729 269.295 C 120.715 272.238,123.189 274.778,124.114 274.824 C 124.381 274.837,125.410 275.829,126.400 277.029 C 127.390 278.228,128.776 279.577,129.481 280.025 C 130.720 280.815,131.334 281.881,133.615 287.207 L 134.561 289.413 135.780 288.102 C 136.489 287.340,137.918 286.472,139.192 286.029 C 141.098 285.366,141.428 285.093,141.726 283.934 C 142.248 281.898,143.799 280.143,145.726 279.407 C 147.197 278.845,147.591 278.445,148.282 276.810 C 149.008 275.092,149.371 274.751,151.546 273.739 C 153.525 272.818,154.078 272.349,154.431 271.290 C 155.054 269.425,156.494 267.859,158.362 267.017 C 159.554 266.480,160.091 265.937,160.421 264.935 C 161.083 262.932,162.599 261.343,164.568 260.591 C 165.937 260.068,166.466 259.583,167.028 258.337 C 167.860 256.493,169.433 255.051,171.290 254.431 C 172.349 254.078,172.818 253.525,173.739 251.546 C 174.742 249.389,175.100 249.004,176.754 248.306 C 178.329 247.640,178.790 247.181,179.616 245.456 C 180.655 243.285,182.660 241.600,184.205 241.600 C 184.887 241.600,185.250 241.185,185.781 239.793 C 186.506 237.896,188.156 236.372,190.192 235.720 C 191.123 235.422,191.462 235.009,191.740 233.835 C 192.171 232.012,194.197 229.889,195.996 229.373 C 197.359 228.982,197.525 228.790,198.597 226.363 C 199.061 225.313,199.738 224.687,201.116 224.038 C 204.093 222.635,204.132 222.605,204.533 221.371 C 205.168 219.420,206.268 218.176,208.273 217.144 C 209.741 216.389,210.270 215.853,210.566 214.819 C 211.060 213.096,213.096 211.060,214.819 210.566 C 215.853 210.270,216.389 209.741,217.144 208.273 C 218.176 206.268,219.420 205.168,221.371 204.533 C 222.605 204.132,222.635 204.093,224.038 201.116 C 224.687 199.738,225.313 199.061,226.363 198.597 C 228.790 197.525,228.982 197.359,229.373 195.996 C 229.891 194.190,232.015 192.171,233.854 191.736 C 235.118 191.437,235.443 191.145,235.764 190.025 C 236.261 188.295,238.295 186.261,240.025 185.764 C 241.145 185.443,241.437 185.118,241.736 183.854 C 242.171 182.015,244.190 179.891,245.996 179.373 C 247.356 178.983,247.527 178.785,248.584 176.389 C 249.180 175.038,250.428 174.121,252.889 173.225 C 253.583 172.972,254.204 172.285,254.604 171.329 C 255.459 169.283,256.300 168.418,258.309 167.519 C 259.368 167.046,260.379 166.184,260.963 165.259 C 261.578 164.284,262.515 163.509,263.653 163.034 C 266.869 161.691,267.295 161.418,268.153 160.155 C 269.026 158.870,271.899 156.296,273.292 155.551 C 273.719 155.322,274.318 154.537,274.624 153.804 C 274.930 153.072,276.021 151.782,277.048 150.937 C 278.075 150.091,279.384 148.874,279.958 148.231 C 280.531 147.588,281.943 146.148,283.095 145.031 C 285.791 142.417,292.417 135.791,295.031 133.095 C 296.148 131.943,297.588 130.527,298.231 129.949 C 298.874 129.372,300.180 127.977,301.133 126.849 C 302.086 125.722,303.087 124.800,303.358 124.800 C 307.016 124.800,307.200 114.651,303.601 111.400 C 302.415 110.329,301.464 108.387,300.442 104.948 C 299.735 102.570,299.260 101.772,297.582 100.148 C 296.475 99.076,295.049 97.300,294.414 96.200 C 293.254 94.193,291.023 91.600,290.457 91.600 C 290.290 91.600,289.598 90.812,288.919 89.848 C 288.240 88.885,286.811 87.501,285.742 86.772 C 284.674 86.044,283.102 84.663,282.248 83.703 C 281.394 82.744,279.661 81.437,278.396 80.798 C 277.047 80.117,275.550 78.947,274.774 77.967 C 273.378 76.205,271.997 75.462,268.400 74.542 C 267.111 74.212,265.040 73.178,263.400 72.047 C 259.098 69.079,254.190 68.007,251.800 69.513 M256.896 71.200 C 258.684 71.554,259.554 72.003,260.829 73.228 C 261.729 74.092,262.802 74.800,263.214 74.800 C 265.540 74.800,272.216 78.007,273.600 79.790 C 274.600 81.078,275.555 81.795,276.942 82.297 C 278.352 82.807,279.425 83.623,280.856 85.270 C 281.940 86.518,283.586 87.986,284.514 88.531 C 285.441 89.076,286.821 90.353,287.580 91.369 C 288.339 92.384,289.517 93.544,290.198 93.946 C 290.991 94.414,291.972 95.697,292.929 97.518 C 293.750 99.081,294.912 100.725,295.511 101.171 C 297.536 102.680,297.798 103.133,299.126 107.434 C 300.297 111.222,300.677 111.956,302.360 113.674 L 304.266 115.622 304.093 118.911 C 303.907 122.422,303.970 122.314,301.151 124.000 C 300.231 124.550,298.980 125.779,298.370 126.730 C 297.760 127.682,296.461 128.968,295.483 129.588 C 293.667 130.740,291.793 132.869,291.541 134.069 C 291.463 134.437,290.500 135.337,289.400 136.069 C 288.300 136.801,286.801 138.300,286.069 139.400 C 285.337 140.500,284.437 141.463,284.069 141.541 C 282.862 141.795,280.737 143.671,279.568 145.515 C 278.937 146.511,277.707 147.750,276.837 148.269 C 275.901 148.827,274.685 150.122,273.866 151.432 C 273.018 152.787,271.774 154.096,270.666 154.799 C 269.670 155.431,268.167 156.874,267.327 158.005 C 265.344 160.676,265.076 160.656,257.501 157.279 C 256.237 156.715,254.826 155.853,254.365 155.363 L 253.529 154.473 252.200 155.374 C 251.469 155.870,250.000 156.511,248.935 156.799 C 247.871 157.086,246.716 157.564,246.369 157.861 C 246.021 158.157,245.533 158.400,245.283 158.400 C 245.033 158.400,244.626 158.805,244.379 159.300 C 244.132 159.795,242.640 161.476,241.065 163.035 C 239.489 164.594,237.770 166.452,237.245 167.164 C 236.720 167.877,235.600 168.895,234.758 169.427 C 233.915 169.959,232.610 171.308,231.858 172.425 C 230.979 173.730,229.886 174.754,228.802 175.291 C 227.178 176.095,224.800 178.785,224.800 179.818 C 224.800 180.092,223.886 180.903,222.769 181.620 C 221.639 182.345,220.148 183.800,219.407 184.900 C 218.675 185.987,217.204 187.467,216.138 188.189 C 215.072 188.911,213.612 190.293,212.893 191.261 C 212.175 192.228,210.903 193.442,210.068 193.958 C 209.233 194.474,207.931 195.870,207.175 197.061 C 206.339 198.378,205.040 199.718,203.859 200.481 C 202.789 201.173,201.310 202.648,200.563 203.768 C 199.749 204.989,198.348 206.349,197.052 207.175 C 195.866 207.931,194.474 209.233,193.958 210.068 C 193.442 210.903,192.228 212.175,191.261 212.893 C 190.293 213.612,188.911 215.072,188.189 216.138 C 187.467 217.204,185.987 218.675,184.900 219.407 C 183.800 220.148,182.345 221.639,181.620 222.769 C 180.903 223.886,180.092 224.800,179.818 224.800 C 178.785 224.800,176.095 227.178,175.291 228.802 C 174.761 229.873,173.734 230.976,172.480 231.820 C 171.394 232.552,169.986 233.979,169.352 234.991 C 168.719 236.002,167.355 237.376,166.322 238.043 C 165.289 238.710,163.795 240.106,163.003 241.145 C 162.210 242.185,160.884 243.454,160.056 243.966 C 159.228 244.477,157.931 245.866,157.175 247.052 C 156.349 248.348,154.989 249.749,153.768 250.563 C 152.648 251.310,151.173 252.789,150.481 253.859 C 149.718 255.040,148.378 256.339,147.061 257.175 C 145.870 257.931,144.477 259.228,143.966 260.056 C 143.454 260.884,142.185 262.210,141.145 263.003 C 140.106 263.795,138.710 265.289,138.043 266.322 C 137.376 267.355,136.030 268.701,135.053 269.313 C 134.075 269.925,132.771 271.095,132.154 271.913 C 129.555 275.359,128.707 275.450,125.394 272.639 C 123.942 271.408,122.628 270.400,122.474 270.400 C 122.320 270.400,121.389 269.185,120.406 267.700 C 118.709 265.137,113.013 259.209,110.008 256.879 C 107.910 255.253,106.905 254.385,104.701 252.295 C 103.596 251.247,101.501 249.839,100.046 249.167 C 98.591 248.494,97.015 247.757,96.544 247.528 C 96.073 247.299,95.455 246.676,95.169 246.142 C 94.334 244.582,89.447 242.111,85.868 241.439 L 84.385 241.161 85.563 240.170 C 86.211 239.624,87.391 237.878,88.184 236.289 C 89.228 234.197,90.133 233.018,91.461 232.017 C 92.470 231.256,93.718 229.963,94.236 229.143 C 95.431 227.250,96.627 226.123,98.422 225.197 C 99.204 224.793,100.345 223.671,100.957 222.702 C 101.569 221.734,102.946 220.368,104.016 219.668 C 105.145 218.929,106.583 217.458,107.442 216.163 C 108.256 214.937,109.613 213.496,110.458 212.963 C 111.303 212.430,112.430 211.303,112.963 210.458 C 113.496 209.613,114.937 208.256,116.163 207.442 C 117.458 206.583,118.929 205.145,119.668 204.016 C 120.368 202.946,121.734 201.569,122.702 200.957 C 123.676 200.342,124.794 199.196,125.203 198.394 C 125.610 197.597,126.685 196.327,127.593 195.572 C 131.901 191.991,141.991 181.901,145.572 177.593 C 146.327 176.685,147.629 175.594,148.464 175.167 C 149.300 174.741,150.242 173.899,150.558 173.296 C 151.193 172.082,153.220 170.103,154.873 169.081 C 155.463 168.716,156.616 167.408,157.434 166.175 C 158.253 164.942,159.613 163.496,160.458 162.963 C 161.303 162.430,162.430 161.303,162.963 160.458 C 163.496 159.613,164.942 158.253,166.175 157.434 C 167.408 156.616,168.716 155.463,169.081 154.873 C 170.119 153.197,171.695 151.583,172.917 150.945 C 173.532 150.624,174.657 149.388,175.418 148.199 C 176.179 147.010,177.289 145.713,177.886 145.318 C 180.209 143.780,193.782 130.201,195.340 127.857 C 195.747 127.244,196.974 126.193,198.067 125.521 C 199.160 124.848,200.486 123.614,201.014 122.777 C 201.542 121.941,202.445 120.929,203.020 120.528 C 205.368 118.893,206.797 117.475,207.771 115.814 C 208.397 114.746,209.453 113.698,210.476 113.131 C 211.482 112.572,212.562 111.508,213.177 110.470 C 213.820 109.382,214.985 108.259,216.313 107.445 C 217.618 106.645,218.919 105.400,219.713 104.188 C 220.421 103.109,221.751 101.723,222.669 101.108 C 223.587 100.492,224.880 99.109,225.541 98.034 C 226.202 96.959,227.249 95.747,227.868 95.340 C 228.487 94.933,230.254 93.323,231.796 91.762 C 233.338 90.202,235.237 88.546,236.015 88.082 C 236.794 87.619,237.845 86.502,238.352 85.600 C 238.859 84.698,240.202 83.229,241.337 82.336 C 242.471 81.442,243.880 79.946,244.466 79.011 C 245.622 77.169,247.004 75.931,248.787 75.142 C 249.412 74.865,250.231 74.090,250.607 73.419 C 251.503 71.824,253.243 70.366,254.000 70.577 C 254.330 70.670,255.633 70.950,256.896 71.200 M71.804 259.700 C 71.012 262.023,70.378 265.882,70.012 270.600 C 69.275 280.118,68.007 286.705,66.372 289.517 C 64.665 292.455,63.371 308.921,64.750 310.160 C 66.008 311.291,76.614 310.501,80.400 308.994 C 85.182 307.091,92.962 305.818,103.400 305.231 C 107.742 304.987,110.385 304.648,111.621 304.179 L 113.442 303.486 112.725 301.243 C 112.331 300.009,111.521 297.309,110.924 295.243 C 109.969 291.935,109.615 291.265,107.965 289.641 C 106.768 288.463,105.903 287.169,105.571 286.061 C 105.050 284.323,103.832 282.817,101.878 281.495 C 101.305 281.107,100.200 279.832,99.423 278.661 C 98.456 277.204,97.377 276.188,96.001 275.439 C 94.897 274.838,93.743 273.863,93.437 273.272 C 92.666 271.780,91.481 270.786,89.068 269.609 C 87.722 268.952,86.630 268.041,85.940 266.998 C 84.958 265.516,84.585 265.310,80.940 264.233 C 75.972 262.767,75.092 262.324,73.715 260.598 C 72.527 259.108,72.078 258.897,71.804 259.700 " stroke="none" fill="#a4a4ac" fill-rule="evenodd"></path><path id="path3" d="M265.714 25.800 C 265.717 26.900,265.795 27.303,265.887 26.695 C 265.979 26.086,265.977 25.186,265.882 24.695 C 265.787 24.203,265.711 24.700,265.714 25.800 M266.819 29.980 C 266.500 30.182,266.123 30.276,265.983 30.190 C 265.843 30.103,265.705 30.648,265.677 31.400 C 265.649 32.153,265.828 32.893,266.075 33.046 C 266.322 33.199,266.418 33.152,266.288 32.942 C 266.146 32.712,267.248 32.568,269.058 32.580 C 272.274 32.601,273.471 33.302,273.052 34.916 C 272.815 35.832,274.246 35.472,275.320 34.346 C 277.630 31.923,269.967 27.988,266.819 29.980 M254.486 43.649 C 254.325 47.659,256.632 50.400,260.167 50.400 C 261.539 50.400,261.548 50.389,261.318 48.900 C 261.032 47.048,261.022 47.036,260.142 47.528 C 258.444 48.478,257.397 47.170,257.431 44.141 C 257.464 41.244,257.229 40.816,255.600 40.807 C 254.637 40.801,254.596 40.906,254.486 43.649 M251.615 67.265 C 249.605 67.848,247.989 69.129,247.358 70.639 C 246.978 71.549,246.277 72.207,245.103 72.756 C 242.768 73.848,241.838 74.755,241.371 76.400 C 241.067 77.467,240.596 77.976,239.386 78.540 C 237.199 79.560,236.023 80.707,235.133 82.687 C 234.551 83.980,233.975 84.551,232.664 85.130 C 230.978 85.876,230.012 86.857,228.265 89.595 C 227.776 90.362,226.841 91.172,226.188 91.395 C 224.804 91.867,223.900 92.801,222.766 94.933 C 222.317 95.776,221.399 96.766,220.725 97.133 C 218.635 98.271,217.198 99.636,216.358 101.283 C 215.913 102.154,214.995 103.166,214.316 103.533 C 212.169 104.693,210.465 106.392,209.983 107.852 C 209.622 108.945,209.136 109.427,207.833 109.986 C 206.120 110.720,204.733 112.119,203.533 114.325 C 203.166 114.999,202.154 115.913,201.283 116.358 C 199.636 117.198,198.271 118.635,197.133 120.725 C 196.766 121.399,195.776 122.317,194.933 122.766 C 192.801 123.900,191.867 124.804,191.395 126.188 C 191.172 126.841,190.362 127.776,189.595 128.265 C 186.964 129.943,185.973 130.884,185.162 132.474 C 184.715 133.350,183.780 134.366,183.081 134.733 C 181.515 135.556,179.266 137.813,178.198 139.633 C 177.713 140.460,176.918 141.142,176.185 141.358 C 175.003 141.708,173.920 142.885,172.388 145.484 C 171.972 146.190,170.896 147.143,169.998 147.601 C 168.163 148.537,166.888 149.852,165.997 151.726 C 165.666 152.424,164.803 153.275,164.079 153.616 C 162.432 154.394,160.550 156.149,159.793 157.614 C 159.474 158.230,158.355 159.313,157.307 160.021 C 155.302 161.374,154.587 162.175,153.597 164.176 C 153.266 164.846,152.403 165.675,151.679 166.016 C 149.874 166.868,148.087 168.628,147.275 170.353 C 146.884 171.184,146.064 172.050,145.340 172.397 C 143.468 173.295,141.747 174.871,141.405 176.000 C 140.981 177.400,140.454 177.967,139.020 178.566 C 137.510 179.197,135.658 181.097,134.816 182.879 C 134.465 183.623,133.623 184.465,132.879 184.816 C 131.097 185.658,129.197 187.510,128.566 189.020 C 127.937 190.526,127.350 191.047,125.862 191.420 C 124.836 191.678,122.400 194.379,122.400 195.260 C 122.400 195.805,121.069 196.937,119.429 197.787 C 118.085 198.484,116.000 200.858,116.000 201.693 C 116.000 202.209,114.630 203.358,113.018 204.193 C 112.177 204.629,111.018 205.704,110.444 206.582 C 109.138 208.578,108.578 209.138,106.582 210.444 C 105.704 211.018,104.629 212.177,104.193 213.018 C 103.198 214.937,102.539 215.598,100.629 216.587 C 99.285 217.284,97.200 219.658,97.200 220.493 C 97.200 220.909,95.684 222.400,95.260 222.400 C 94.428 222.400,91.679 224.829,91.442 225.775 C 91.120 227.057,90.220 227.955,88.218 228.993 C 87.377 229.429,86.226 230.509,85.660 231.393 C 85.095 232.277,83.786 233.918,82.750 235.040 C 78.230 239.940,79.337 243.597,86.005 245.785 C 89.274 246.858,91.600 248.387,91.600 249.465 C 91.600 250.085,93.427 251.073,95.973 251.829 C 97.992 252.429,98.856 253.118,99.972 255.016 C 100.447 255.825,101.710 256.752,103.743 257.784 C 105.424 258.638,106.800 259.479,106.800 259.654 C 106.800 259.967,111.058 264.601,115.048 268.629 C 116.175 269.767,117.435 271.469,117.848 272.413 C 118.436 273.753,119.193 274.509,121.310 275.868 C 123.981 277.582,124.493 278.237,125.003 280.591 C 125.145 281.246,125.976 282.462,126.850 283.293 C 127.831 284.227,129.019 286.067,129.957 288.106 C 132.804 294.298,134.274 294.857,138.210 291.245 C 139.316 290.230,141.026 288.848,142.010 288.174 C 142.995 287.500,144.061 286.420,144.381 285.774 C 145.150 284.219,146.818 282.400,147.475 282.400 C 148.161 282.400,151.200 279.356,151.200 278.670 C 151.200 277.936,152.775 276.527,154.812 275.437 C 155.984 274.811,156.865 273.910,157.617 272.570 C 158.220 271.495,159.048 270.432,159.457 270.209 C 161.293 269.204,162.653 268.016,163.185 266.953 C 163.915 265.495,165.613 263.600,166.190 263.600 C 166.915 263.600,169.110 261.495,169.881 260.061 C 170.305 259.273,171.407 258.269,172.562 257.621 C 173.910 256.865,174.810 255.986,175.437 254.812 C 176.527 252.775,177.936 251.200,178.670 251.200 C 179.356 251.200,182.400 248.161,182.400 247.475 C 182.400 246.823,184.211 245.157,185.761 244.381 C 186.400 244.061,187.600 242.882,188.429 241.761 C 189.258 240.639,190.844 239.069,191.954 238.271 C 193.122 237.432,194.327 236.127,194.812 235.177 C 195.282 234.255,196.206 233.242,196.919 232.867 C 198.530 232.020,200.811 229.749,201.640 228.166 C 202.019 227.442,203.198 226.426,204.533 225.673 C 206.297 224.677,207.000 223.979,207.770 222.458 C 208.432 221.152,209.156 220.350,209.979 220.009 C 211.298 219.462,212.996 217.667,214.067 215.684 C 214.434 215.005,215.446 214.087,216.317 213.642 C 218.000 212.784,219.777 210.931,220.202 209.594 C 220.343 209.148,221.346 208.334,222.430 207.785 C 223.982 206.999,224.672 206.306,225.673 204.533 C 226.397 203.250,227.457 202.005,228.135 201.640 C 230.001 200.637,231.560 199.139,232.519 197.425 C 233.040 196.494,234.135 195.422,235.200 194.800 C 236.190 194.223,237.654 192.886,238.454 191.829 C 239.254 190.772,240.772 189.254,241.829 188.454 C 242.886 187.654,244.223 186.190,244.800 185.200 C 245.422 184.135,246.494 183.040,247.425 182.519 C 249.139 181.560,250.637 180.001,251.640 178.135 C 252.006 177.455,253.253 176.395,254.550 175.663 C 256.269 174.693,257.021 173.967,257.652 172.668 C 258.253 171.431,258.995 170.683,260.319 169.981 C 261.524 169.341,262.553 168.364,263.321 167.128 C 264.070 165.924,265.012 165.018,265.945 164.605 C 268.725 163.374,269.403 162.843,270.131 161.326 C 270.533 160.487,271.001 159.532,271.171 159.206 C 271.341 158.879,272.143 158.454,272.952 158.263 C 274.495 157.898,276.060 156.241,276.601 154.400 C 277.023 152.962,277.913 152.083,279.243 151.791 C 280.698 151.471,282.617 149.586,282.984 148.117 C 283.296 146.866,284.294 145.600,284.968 145.600 C 286.232 145.600,288.220 143.982,289.175 142.176 C 289.962 140.686,290.689 139.961,292.186 139.169 C 293.599 138.422,294.374 137.681,294.911 136.563 C 296.368 133.532,295.930 133.969,298.974 132.505 C 300.046 131.990,300.790 131.246,301.305 130.174 C 301.722 129.308,302.201 128.333,302.371 128.007 C 302.540 127.680,303.549 126.960,304.612 126.407 C 309.641 123.788,309.881 113.180,305.008 108.891 C 303.507 107.569,303.131 106.891,302.185 103.788 C 300.870 99.478,300.323 98.581,298.411 97.605 C 297.291 97.034,296.828 96.471,296.454 95.224 C 295.987 93.663,292.998 90.105,289.070 86.431 C 282.731 80.504,282.053 79.969,279.971 79.262 C 278.174 78.651,277.640 78.235,276.798 76.797 C 275.860 75.192,275.520 74.974,272.068 73.762 C 269.367 72.813,267.877 72.020,266.621 70.862 C 263.374 67.869,255.797 66.053,251.615 67.265 M259.200 69.675 C 259.970 69.917,261.860 70.984,263.400 72.047 C 265.040 73.178,267.111 74.212,268.400 74.542 C 271.997 75.462,273.378 76.205,274.774 77.967 C 275.550 78.947,277.047 80.117,278.396 80.798 C 279.661 81.437,281.394 82.744,282.248 83.703 C 283.102 84.663,284.674 86.044,285.742 86.772 C 286.811 87.501,288.240 88.885,288.919 89.848 C 289.598 90.812,290.290 91.600,290.457 91.600 C 291.023 91.600,293.254 94.193,294.414 96.200 C 295.049 97.300,296.475 99.076,297.582 100.148 C 299.260 101.772,299.735 102.570,300.442 104.948 C 301.464 108.387,302.415 110.329,303.601 111.400 C 307.200 114.651,307.016 124.800,303.358 124.800 C 303.087 124.800,302.086 125.722,301.133 126.849 C 300.180 127.977,298.874 129.372,298.231 129.949 C 297.588 130.527,296.148 131.943,295.031 133.095 C 292.417 135.791,285.791 142.417,283.095 145.031 C 281.943 146.148,280.531 147.588,279.958 148.231 C 279.384 148.874,278.075 150.091,277.048 150.937 C 276.021 151.782,274.930 153.072,274.624 153.804 C 274.318 154.537,273.719 155.322,273.292 155.551 C 271.899 156.296,269.026 158.870,268.153 160.155 C 267.295 161.418,266.869 161.691,263.653 163.034 C 262.515 163.509,261.578 164.284,260.963 165.259 C 260.379 166.184,259.368 167.046,258.309 167.519 C 256.300 168.418,255.459 169.283,254.604 171.329 C 254.204 172.285,253.583 172.972,252.889 173.225 C 250.428 174.121,249.180 175.038,248.584 176.389 C 247.527 178.785,247.356 178.983,245.996 179.373 C 244.190 179.891,242.171 182.015,241.736 183.854 C 241.437 185.118,241.145 185.443,240.025 185.764 C 238.295 186.261,236.261 188.295,235.764 190.025 C 235.443 191.145,235.118 191.437,233.854 191.736 C 232.015 192.171,229.891 194.190,229.373 195.996 C 228.982 197.359,228.790 197.525,226.363 198.597 C 225.313 199.061,224.687 199.738,224.038 201.116 C 222.635 204.093,222.605 204.132,221.371 204.533 C 219.420 205.168,218.176 206.268,217.144 208.273 C 216.389 209.741,215.853 210.270,214.819 210.566 C 213.096 211.060,211.060 213.096,210.566 214.819 C 210.270 215.853,209.741 216.389,208.273 217.144 C 206.268 218.176,205.168 219.420,204.533 221.371 C 204.132 222.605,204.093 222.635,201.116 224.038 C 199.738 224.687,199.061 225.313,198.597 226.363 C 197.525 228.790,197.359 228.982,195.996 229.373 C 194.197 229.889,192.171 232.012,191.740 233.835 C 191.462 235.009,191.123 235.422,190.192 235.720 C 188.156 236.372,186.506 237.896,185.781 239.793 C 185.250 241.185,184.887 241.600,184.205 241.600 C 182.660 241.600,180.655 243.285,179.616 245.456 C 178.790 247.181,178.329 247.640,176.754 248.306 C 175.100 249.004,174.742 249.389,173.739 251.546 C 172.818 253.525,172.349 254.078,171.290 254.431 C 169.433 255.051,167.860 256.493,167.028 258.337 C 166.466 259.583,165.937 260.068,164.568 260.591 C 162.599 261.343,161.083 262.932,160.421 264.935 C 160.091 265.937,159.554 266.480,158.362 267.017 C 156.494 267.859,155.054 269.425,154.431 271.290 C 154.078 272.349,153.525 272.818,151.546 273.739 C 149.371 274.751,149.008 275.092,148.282 276.810 C 147.591 278.445,147.197 278.845,145.726 279.407 C 143.799 280.143,142.248 281.898,141.726 283.934 C 141.428 285.093,141.098 285.366,139.192 286.029 C 137.918 286.472,136.489 287.340,135.780 288.102 L 134.561 289.413 133.615 287.207 C 131.334 281.881,130.720 280.815,129.481 280.025 C 128.776 279.577,127.390 278.228,126.400 277.029 C 125.410 275.829,124.381 274.837,124.114 274.824 C 123.189 274.778,120.715 272.238,118.729 269.295 C 116.476 265.957,109.976 259.237,107.072 257.245 C 106.012 256.518,104.069 254.964,102.755 253.792 C 101.442 252.620,99.069 251.005,97.483 250.204 C 95.898 249.403,93.788 247.953,92.795 246.982 C 91.449 245.666,90.231 244.959,88.008 244.203 C 86.368 243.645,84.343 242.715,83.506 242.135 C 81.779 240.938,81.737 241.105,84.772 237.131 C 85.558 236.104,86.642 234.528,87.182 233.629 C 87.722 232.730,88.853 231.518,89.696 230.934 C 90.538 230.350,91.922 228.893,92.772 227.695 C 93.670 226.429,95.081 225.075,96.145 224.459 C 97.150 223.877,98.591 222.527,99.346 221.459 C 100.100 220.391,101.560 218.920,102.588 218.188 C 103.617 217.457,105.030 216.057,105.729 215.077 C 106.428 214.098,107.612 212.779,108.359 212.148 C 110.064 210.709,110.709 210.064,112.148 208.359 C 112.779 207.612,114.104 206.424,115.091 205.720 C 116.078 205.015,117.493 203.575,118.235 202.520 C 118.977 201.464,120.466 200.001,121.545 199.269 C 122.764 198.442,123.892 197.230,124.526 196.065 C 125.224 194.783,126.220 193.764,127.676 192.842 C 128.847 192.101,130.254 190.782,130.803 189.912 C 131.351 189.042,132.673 187.764,133.741 187.071 C 134.808 186.379,136.282 184.908,137.016 183.802 C 137.750 182.697,139.058 181.345,139.922 180.799 C 140.787 180.253,142.103 178.841,142.847 177.661 C 143.815 176.127,144.733 175.246,146.075 174.565 C 147.366 173.909,148.385 172.955,149.350 171.501 C 150.143 170.307,151.556 168.881,152.605 168.218 C 153.625 167.574,155.079 166.136,155.836 165.023 C 156.593 163.911,157.689 162.640,158.271 162.200 C 159.620 161.179,161.179 159.620,162.200 158.271 C 162.640 157.689,163.946 156.570,165.101 155.784 C 166.257 154.999,167.457 153.871,167.768 153.278 C 168.405 152.066,170.840 149.689,172.495 148.666 C 173.097 148.293,173.936 147.316,174.358 146.494 C 175.222 144.814,176.770 143.273,178.701 142.170 C 179.416 141.761,180.097 141.125,180.214 140.755 C 180.331 140.386,181.366 139.259,182.514 138.251 C 183.661 137.244,185.025 135.984,185.544 135.453 C 189.095 131.821,190.904 130.006,191.254 129.725 C 191.477 129.546,192.322 128.508,193.133 127.418 C 193.943 126.327,195.307 125.067,196.163 124.618 C 197.020 124.168,198.416 122.858,199.267 121.707 C 200.118 120.556,201.801 118.886,203.007 117.995 C 204.213 117.104,205.200 116.195,205.200 115.974 C 205.200 115.754,207.453 113.375,210.206 110.687 C 215.572 105.448,217.135 103.894,219.800 101.150 C 220.735 100.188,222.086 98.962,222.801 98.428 C 223.516 97.893,224.333 96.903,224.616 96.228 C 225.180 94.880,226.149 93.927,228.642 92.265 C 229.546 91.664,230.471 90.763,230.698 90.263 C 230.926 89.764,231.777 88.826,232.590 88.178 C 234.476 86.675,236.675 84.476,238.178 82.590 C 238.826 81.777,239.764 80.926,240.263 80.698 C 240.763 80.471,241.664 79.546,242.265 78.642 C 243.928 76.147,244.880 75.180,246.234 74.613 C 246.912 74.329,248.172 73.235,249.034 72.183 C 251.869 68.719,254.273 68.125,259.200 69.675 M70.761 256.703 C 68.263 258.379,68.077 258.803,66.780 265.800 C 66.331 268.220,65.524 271.550,64.987 273.200 C 63.335 278.271,62.746 282.372,61.799 295.400 C 61.464 300.020,60.999 305.108,60.766 306.707 C 60.047 311.651,62.686 314.084,68.400 313.742 C 85.371 312.727,89.441 312.220,94.060 310.546 C 98.188 309.050,99.169 308.852,104.671 308.412 C 117.975 307.348,121.386 304.457,116.665 298.245 C 116.145 297.560,114.864 294.972,113.819 292.494 C 112.224 288.710,111.638 287.757,110.160 286.546 C 109.086 285.665,108.399 284.772,108.398 284.252 C 108.392 281.870,97.464 270.353,92.543 267.542 C 91.694 267.058,90.096 265.747,88.990 264.631 C 87.420 263.044,86.316 262.359,83.941 261.496 C 82.269 260.889,80.203 259.917,79.350 259.336 C 75.150 256.473,72.372 255.621,70.761 256.703 M73.715 260.598 C 75.092 262.324,75.972 262.767,80.940 264.233 C 84.585 265.310,84.958 265.516,85.940 266.998 C 86.630 268.041,87.722 268.952,89.068 269.609 C 91.481 270.786,92.666 271.780,93.437 273.272 C 93.743 273.863,94.897 274.838,96.001 275.439 C 97.377 276.188,98.456 277.204,99.423 278.661 C 100.200 279.832,101.305 281.107,101.878 281.495 C 103.832 282.817,105.050 284.323,105.571 286.061 C 105.903 287.169,106.768 288.463,107.965 289.641 C 109.615 291.265,109.969 291.935,110.924 295.243 C 111.521 297.309,112.331 300.009,112.725 301.243 L 113.442 303.486 111.621 304.179 C 110.385 304.648,107.742 304.987,103.400 305.231 C 92.962 305.818,85.182 307.091,80.400 308.994 C 76.614 310.501,66.008 311.291,64.750 310.160 C 63.371 308.921,64.665 292.455,66.372 289.517 C 68.007 286.705,69.275 280.118,70.012 270.600 C 70.378 265.882,71.012 262.023,71.804 259.700 C 72.078 258.897,72.527 259.108,73.715 260.598 M34.501 309.000 C 34.505 309.880,34.587 310.193,34.683 309.695 C 34.779 309.198,34.775 308.478,34.675 308.095 C 34.575 307.713,34.496 308.120,34.501 309.000 " stroke="none" fill="#8c8c94" fill-rule="evenodd"></path><path id="path4" d="M290.800 1.600 L 290.800 3.200 288.500 3.235 C 278.151 3.392,278.701 3.192,278.400 6.920 L 278.200 9.400 275.303 9.517 C 272.171 9.644,271.879 9.905,272.070 12.400 C 272.300 15.398,272.222 15.493,269.401 15.672 C 265.770 15.904,265.805 15.833,265.769 22.921 C 265.733 30.186,265.785 30.543,266.801 30.000 C 269.137 28.749,273.702 29.917,275.158 32.136 C 276.564 34.279,277.980 34.985,281.390 35.243 L 284.600 35.487 286.086 34.157 C 286.903 33.426,288.495 32.360,289.624 31.788 C 290.753 31.216,292.792 29.710,294.156 28.440 C 296.263 26.481,297.026 26.039,299.218 25.507 C 311.282 22.583,317.460 22.261,323.906 24.217 C 324.948 24.533,326.520 24.798,327.400 24.806 C 329.868 24.830,334.212 26.877,336.312 29.007 C 337.310 30.020,338.808 31.196,339.640 31.621 C 341.226 32.430,342.519 33.952,343.823 36.547 C 344.250 37.397,345.526 39.137,346.657 40.413 C 353.195 47.788,353.061 71.304,346.438 78.956 C 345.567 79.962,344.295 81.824,343.611 83.093 C 342.076 85.941,341.771 86.323,339.919 87.706 C 339.105 88.314,338.120 89.350,337.732 90.008 C 337.343 90.666,335.907 92.025,334.542 93.028 C 333.176 94.030,331.752 95.334,331.378 95.925 C 330.203 97.778,328.659 99.244,327.000 100.079 C 326.120 100.522,324.710 101.541,323.867 102.342 L 322.335 103.800 321.199 102.453 C 320.575 101.713,319.487 99.935,318.782 98.502 C 318.076 97.069,316.627 94.934,315.560 93.756 C 314.494 92.578,313.155 90.695,312.585 89.571 C 312.016 88.447,310.841 86.759,309.975 85.819 C 309.109 84.879,308.400 83.979,308.400 83.818 C 308.400 82.298,300.436 74.236,294.841 70.094 C 293.434 69.052,291.274 67.253,290.041 66.097 C 288.809 64.940,286.630 63.433,285.200 62.748 C 283.770 62.063,281.746 60.794,280.701 59.929 C 279.423 58.869,277.266 57.773,274.101 56.575 C 271.516 55.596,268.950 54.432,268.400 53.987 C 266.503 52.454,261.867 50.400,260.303 50.400 C 256.656 50.400,254.292 47.696,254.475 43.731 L 254.600 41.000 248.267 40.962 C 240.727 40.917,240.687 40.936,240.874 44.477 L 241.000 46.845 238.133 46.923 C 234.638 47.017,234.608 47.044,234.565 50.235 C 234.522 53.383,234.654 53.255,231.338 53.335 L 228.613 53.400 228.330 55.000 C 228.174 55.880,228.036 57.267,228.023 58.082 L 228.000 59.565 225.100 59.682 L 222.200 59.800 222.165 61.200 C 222.146 61.970,222.101 63.370,222.065 64.311 L 222.000 66.022 219.476 65.764 C 215.980 65.406,215.406 65.980,215.764 69.476 L 216.022 72.000 214.311 72.065 C 213.370 72.101,211.970 72.146,211.200 72.165 L 209.800 72.200 209.682 75.100 L 209.565 78.000 208.082 78.023 C 207.267 78.036,205.880 78.174,205.000 78.330 L 203.400 78.613 203.335 81.338 C 203.255 84.654,203.383 84.522,200.235 84.565 C 197.044 84.608,197.000 84.655,197.000 88.032 L 197.000 90.798 195.200 90.853 C 190.382 91.000,191.000 90.382,190.853 95.200 L 190.798 97.000 188.032 97.000 C 184.655 97.000,184.608 97.044,184.565 100.235 C 184.522 103.392,184.605 103.312,181.313 103.360 L 178.613 103.400 178.330 105.000 C 178.174 105.880,178.036 107.267,178.023 108.082 L 178.000 109.565 175.100 109.682 L 172.200 109.800 172.165 111.200 C 172.146 111.970,172.101 113.370,172.065 114.311 L 172.000 116.022 169.476 115.764 C 165.980 115.406,165.406 115.980,165.764 119.476 L 166.022 122.000 164.311 122.065 C 163.370 122.101,161.970 122.146,161.200 122.165 L 159.800 122.200 159.682 125.100 L 159.565 128.000 158.082 128.023 C 157.267 128.036,155.880 128.174,155.000 128.330 L 153.400 128.613 153.360 131.313 C 153.312 134.594,153.288 134.621,150.464 134.515 C 147.263 134.395,147.029 134.630,147.013 137.975 L 147.000 140.796 145.200 140.852 C 140.718 140.991,141.004 140.900,140.954 142.200 C 140.929 142.860,140.883 144.210,140.852 145.200 L 140.796 147.000 137.975 147.013 C 134.630 147.029,134.395 147.263,134.515 150.464 C 134.621 153.288,134.594 153.312,131.313 153.360 L 128.613 153.400 128.330 155.000 C 128.174 155.880,128.036 157.267,128.023 158.082 L 128.000 159.565 125.100 159.682 L 122.200 159.800 122.165 161.200 C 122.146 161.970,122.101 163.370,122.065 164.311 L 122.000 166.022 119.476 165.764 C 115.980 165.406,115.406 165.980,115.764 169.476 L 116.022 172.000 114.311 172.065 C 113.370 172.101,111.970 172.146,111.200 172.165 L 109.800 172.200 109.682 175.100 L 109.565 178.000 108.082 178.023 C 107.267 178.036,105.880 178.174,105.000 178.330 L 103.400 178.613 103.360 181.313 C 103.312 184.594,103.288 184.621,100.464 184.515 C 97.263 184.395,97.029 184.630,97.013 187.975 L 97.000 190.796 95.200 190.852 C 90.380 191.002,91.002 190.380,90.852 195.200 L 90.796 197.000 87.975 197.013 C 84.630 197.029,84.395 197.263,84.515 200.464 C 84.621 203.288,84.594 203.312,81.313 203.360 L 78.613 203.400 78.330 205.000 C 78.174 205.880,78.036 207.267,78.023 208.082 L 78.000 209.565 75.100 209.682 L 72.200 209.800 72.165 211.200 C 72.146 211.970,72.101 213.370,72.065 214.311 L 72.000 216.022 69.476 215.764 C 65.980 215.406,65.406 215.980,65.764 219.476 L 66.022 222.000 64.311 222.065 C 63.370 222.101,61.970 222.146,61.200 222.165 L 59.800 222.200 59.682 225.100 L 59.565 228.000 58.082 228.023 C 57.267 228.036,55.880 228.174,55.000 228.330 L 53.400 228.613 53.360 231.313 C 53.312 234.609,53.300 234.622,50.348 234.510 C 48.899 234.455,48.058 234.571,48.203 234.805 C 48.334 235.017,48.175 235.089,47.850 234.964 C 47.114 234.681,46.691 237.092,46.862 240.600 C 46.927 241.920,46.939 245.275,46.890 248.055 L 46.800 253.109 44.900 253.377 C 41.906 253.800,41.642 253.955,41.238 255.524 C 41.029 256.336,40.838 265.162,40.813 275.151 L 40.768 293.303 38.974 295.046 C 37.987 296.005,36.747 296.898,36.219 297.031 C 34.777 297.393,34.621 298.090,34.570 304.400 C 34.545 307.590,34.496 311.482,34.462 313.049 L 34.400 315.898 32.367 316.094 C 29.589 316.360,28.753 317.258,28.667 320.064 C 28.615 321.755,28.455 322.250,27.949 322.291 C 22.868 322.697,22.092 324.526,22.046 336.200 C 22.005 346.575,22.103 346.791,26.882 346.798 C 28.282 346.800,28.378 346.883,28.617 348.300 C 29.261 352.120,29.688 352.376,36.084 352.784 C 44.780 353.340,46.175 352.862,46.602 349.182 L 46.879 346.800 49.559 346.800 C 52.880 346.800,53.200 346.497,53.200 343.356 L 53.200 340.872 59.300 340.675 C 69.079 340.360,71.192 339.647,71.206 336.656 C 71.217 334.362,70.316 334.467,91.407 334.299 C 115.124 334.110,114.454 334.237,115.060 329.816 L 115.309 328.000 126.628 328.000 C 140.485 328.000,140.788 327.895,140.798 323.100 C 140.800 322.091,140.927 322.000,142.340 322.000 C 145.909 322.000,146.784 321.125,146.795 317.547 L 146.800 315.693 149.399 315.528 C 152.617 315.323,152.836 315.105,153.098 311.837 L 153.310 309.200 155.626 309.200 C 158.660 309.200,159.200 308.660,159.200 305.626 L 159.200 303.310 161.837 303.098 C 165.095 302.836,165.236 302.695,165.498 299.437 L 165.710 296.800 167.555 296.795 C 171.125 296.784,172.000 295.907,172.000 292.340 C 172.000 290.814,172.015 290.800,173.574 290.800 C 177.064 290.800,177.985 289.957,177.994 286.755 L 178.000 284.510 180.637 284.298 C 183.895 284.036,184.036 283.895,184.298 280.637 L 184.510 278.000 186.755 277.994 C 189.957 277.985,190.800 277.064,190.800 273.574 C 190.800 272.015,190.814 272.000,192.340 272.000 C 195.907 272.000,196.784 271.125,196.795 267.555 L 196.800 265.710 199.437 265.498 C 202.695 265.236,202.836 265.095,203.098 261.837 L 203.310 259.200 205.626 259.200 C 208.660 259.200,209.200 258.660,209.200 255.626 L 209.200 253.310 211.837 253.098 C 215.095 252.836,215.236 252.695,215.498 249.437 L 215.710 246.800 217.555 246.795 C 221.110 246.784,222.000 245.903,222.000 242.396 L 222.000 240.911 224.483 240.686 C 227.514 240.411,228.000 239.871,228.000 236.778 L 228.000 234.510 230.637 234.298 C 233.895 234.036,234.036 233.895,234.298 230.637 L 234.510 228.000 236.778 228.000 C 239.859 228.000,240.412 227.509,240.681 224.534 L 240.902 222.102 243.297 221.885 C 246.302 221.612,246.526 221.374,246.725 218.243 L 246.888 215.688 249.443 215.525 C 252.614 215.323,252.836 215.099,253.098 211.837 L 253.310 209.200 255.626 209.200 C 258.660 209.200,259.200 208.660,259.200 205.626 L 259.200 203.310 261.837 203.098 C 265.099 202.836,265.323 202.614,265.525 199.443 L 265.688 196.888 268.243 196.725 C 271.374 196.526,271.612 196.302,271.885 193.297 L 272.102 190.902 274.534 190.681 C 277.509 190.412,278.000 189.859,278.000 186.778 L 278.000 184.510 280.637 184.298 C 283.895 184.036,284.036 183.895,284.298 180.637 L 284.510 178.000 286.778 178.000 C 289.859 178.000,290.412 177.509,290.681 174.534 L 290.902 172.102 293.297 171.885 C 296.302 171.612,296.526 171.374,296.725 168.243 L 296.888 165.688 299.443 165.525 C 302.614 165.323,302.836 165.099,303.098 161.837 L 303.310 159.200 305.626 159.200 C 308.660 159.200,309.200 158.660,309.200 155.626 L 309.200 153.310 311.837 153.098 C 315.099 152.836,315.323 152.614,315.525 149.443 L 315.688 146.888 318.243 146.725 C 321.374 146.526,321.612 146.302,321.885 143.297 L 322.102 140.902 324.534 140.681 C 327.509 140.412,328.000 139.859,328.000 136.778 L 328.000 134.510 330.637 134.298 C 333.895 134.036,334.036 133.895,334.298 130.637 L 334.510 128.000 336.755 127.994 C 339.957 127.985,340.800 127.064,340.800 123.574 C 340.800 122.015,340.814 122.000,342.340 122.000 C 345.909 122.000,346.784 121.125,346.795 117.547 L 346.800 115.693 349.399 115.528 C 352.617 115.323,352.836 115.105,353.098 111.837 L 353.310 109.200 355.626 109.200 C 358.664 109.200,359.200 108.661,359.200 105.611 L 359.200 103.279 361.573 103.003 C 364.941 102.612,365.168 102.354,365.458 98.591 L 365.705 95.381 367.223 94.733 C 368.247 94.295,368.999 93.584,369.537 92.542 C 369.975 91.694,370.708 90.773,371.167 90.497 C 371.951 90.023,372.000 89.645,372.000 84.052 L 372.000 78.111 374.446 77.889 C 378.046 77.563,377.800 78.920,377.800 59.400 C 377.800 39.799,378.046 41.141,374.406 40.878 L 372.000 40.704 372.000 34.968 C 372.000 29.688,371.934 29.170,371.175 28.462 C 370.721 28.040,370.034 27.088,369.647 26.347 C 369.216 25.520,368.306 24.691,367.287 24.200 C 365.719 23.444,365.627 23.302,365.591 21.600 C 365.490 16.752,365.090 16.177,361.545 15.796 L 359.290 15.554 359.127 12.992 C 358.925 9.817,358.953 9.843,355.477 9.600 L 352.619 9.400 352.321 7.644 C 351.708 4.037,349.992 3.399,340.500 3.246 L 337.600 3.200 337.600 1.600 L 337.600 0.000 314.200 0.000 L 290.800 0.000 290.800 1.600 M260.183 67.665 C 263.089 68.153,264.375 68.792,266.621 70.862 C 267.877 72.020,269.367 72.813,272.068 73.762 C 275.520 74.974,275.860 75.192,276.798 76.797 C 277.640 78.235,278.174 78.651,279.971 79.262 C 282.053 79.969,282.731 80.504,289.070 86.431 C 292.998 90.105,295.987 93.663,296.454 95.224 C 296.828 96.471,297.291 97.034,298.411 97.605 C 300.323 98.581,300.870 99.478,302.185 103.788 C 303.131 106.891,303.507 107.569,305.008 108.891 C 309.881 113.180,309.641 123.788,304.612 126.407 C 303.549 126.960,302.540 127.680,302.371 128.007 C 302.201 128.333,301.722 129.308,301.305 130.174 C 300.790 131.246,300.046 131.990,298.974 132.505 C 295.930 133.969,296.368 133.532,294.911 136.563 C 294.374 137.681,293.599 138.422,292.186 139.169 C 290.689 139.961,289.962 140.686,289.175 142.176 C 288.220 143.982,286.232 145.600,284.968 145.600 C 284.294 145.600,283.296 146.866,282.984 148.117 C 282.617 149.586,280.698 151.471,279.243 151.791 C 277.913 152.083,277.023 152.962,276.601 154.400 C 276.060 156.241,274.495 157.898,272.952 158.263 C 272.143 158.454,271.341 158.879,271.171 159.206 C 271.001 159.532,270.533 160.487,270.131 161.326 C 269.403 162.843,268.725 163.374,265.945 164.605 C 265.012 165.018,264.070 165.924,263.321 167.128 C 262.553 168.364,261.524 169.341,260.319 169.981 C 258.995 170.683,258.253 171.431,257.652 172.668 C 257.021 173.967,256.269 174.693,254.550 175.663 C 253.253 176.395,252.006 177.455,251.640 178.135 C 250.637 180.001,249.139 181.560,247.425 182.519 C 246.494 183.040,245.422 184.135,244.800 185.200 C 244.223 186.190,242.886 187.654,241.829 188.454 C 240.772 189.254,239.254 190.772,238.454 191.829 C 237.654 192.886,236.190 194.223,235.200 194.800 C 234.135 195.422,233.040 196.494,232.519 197.425 C 231.560 199.139,230.001 200.637,228.135 201.640 C 227.457 202.005,226.397 203.250,225.673 204.533 C 224.672 206.306,223.982 206.999,222.430 207.785 C 221.346 208.334,220.343 209.148,220.202 209.594 C 219.777 210.931,218.000 212.784,216.317 213.642 C 215.446 214.087,214.434 215.005,214.067 215.684 C 212.996 217.667,211.298 219.462,209.979 220.009 C 209.156 220.350,208.432 221.152,207.770 222.458 C 207.000 223.979,206.297 224.677,204.533 225.673 C 203.198 226.426,202.019 227.442,201.640 228.166 C 200.811 229.749,198.530 232.020,196.919 232.867 C 196.206 233.242,195.282 234.255,194.812 235.177 C 194.327 236.127,193.122 237.432,191.954 238.271 C 190.844 239.069,189.258 240.639,188.429 241.761 C 187.600 242.882,186.400 244.061,185.761 244.381 C 184.211 245.157,182.400 246.823,182.400 247.475 C 182.400 248.161,179.356 251.200,178.670 251.200 C 177.936 251.200,176.527 252.775,175.437 254.812 C 174.810 255.986,173.910 256.865,172.562 257.621 C 171.407 258.269,170.305 259.273,169.881 260.061 C 169.110 261.495,166.915 263.600,166.190 263.600 C 165.613 263.600,163.915 265.495,163.185 266.953 C 162.653 268.016,161.293 269.204,159.457 270.209 C 159.048 270.432,158.220 271.495,157.617 272.570 C 156.865 273.910,155.984 274.811,154.812 275.437 C 152.775 276.527,151.200 277.936,151.200 278.670 C 151.200 279.356,148.161 282.400,147.475 282.400 C 146.818 282.400,145.150 284.219,144.381 285.774 C 144.061 286.420,142.995 287.500,142.010 288.174 C 141.026 288.848,139.316 290.230,138.210 291.245 C 134.274 294.857,132.804 294.298,129.957 288.106 C 129.019 286.067,127.831 284.227,126.850 283.293 C 125.976 282.462,125.145 281.246,125.003 280.591 C 124.493 278.237,123.981 277.582,121.310 275.868 C 119.193 274.509,118.436 273.753,117.848 272.413 C 117.435 271.469,116.175 269.767,115.048 268.629 C 111.058 264.601,106.800 259.967,106.800 259.654 C 106.800 259.479,105.424 258.638,103.743 257.784 C 101.710 256.752,100.447 255.825,99.972 255.016 C 98.856 253.118,97.992 252.429,95.973 251.829 C 93.427 251.073,91.600 250.085,91.600 249.465 C 91.600 248.387,89.274 246.858,86.005 245.785 C 79.337 243.597,78.230 239.940,82.750 235.040 C 83.786 233.918,85.095 232.277,85.660 231.393 C 86.226 230.509,87.377 229.429,88.218 228.993 C 90.220 227.955,91.120 227.057,91.442 225.775 C 91.679 224.829,94.428 222.400,95.260 222.400 C 95.684 222.400,97.200 220.909,97.200 220.493 C 97.200 219.658,99.285 217.284,100.629 216.587 C 102.539 215.598,103.198 214.937,104.193 213.018 C 104.629 212.177,105.704 211.018,106.582 210.444 C 108.578 209.138,109.138 208.578,110.444 206.582 C 111.018 205.704,112.177 204.629,113.018 204.193 C 114.630 203.358,116.000 202.209,116.000 201.693 C 116.000 200.858,118.085 198.484,119.429 197.787 C 121.069 196.937,122.400 195.805,122.400 195.260 C 122.400 194.379,124.836 191.678,125.862 191.420 C 127.350 191.047,127.937 190.526,128.566 189.020 C 129.197 187.510,131.097 185.658,132.879 184.816 C 133.623 184.465,134.465 183.623,134.816 182.879 C 135.658 181.097,137.510 179.197,139.020 178.566 C 140.454 177.967,140.981 177.400,141.405 176.000 C 141.747 174.871,143.468 173.295,145.340 172.397 C 146.064 172.050,146.884 171.184,147.275 170.353 C 148.087 168.628,149.874 166.868,151.679 166.016 C 152.403 165.675,153.266 164.846,153.597 164.176 C 154.587 162.175,155.302 161.374,157.307 160.021 C 158.355 159.313,159.474 158.230,159.793 157.614 C 160.550 156.149,162.432 154.394,164.079 153.616 C 164.803 153.275,165.666 152.424,165.997 151.726 C 166.888 149.852,168.163 148.537,169.998 147.601 C 170.896 147.143,171.972 146.190,172.388 145.484 C 173.920 142.885,175.003 141.708,176.185 141.358 C 176.918 141.142,177.713 140.460,178.198 139.633 C 179.266 137.813,181.515 135.556,183.081 134.733 C 183.780 134.366,184.715 133.350,185.162 132.474 C 185.973 130.884,186.964 129.943,189.595 128.265 C 190.362 127.776,191.172 126.841,191.395 126.188 C 191.867 124.804,192.801 123.900,194.933 122.766 C 195.776 122.317,196.766 121.399,197.133 120.725 C 198.271 118.635,199.636 117.198,201.283 116.358 C 202.154 115.913,203.166 114.999,203.533 114.325 C 204.733 112.119,206.120 110.720,207.833 109.986 C 209.136 109.427,209.622 108.945,209.983 107.852 C 210.465 106.392,212.169 104.693,214.316 103.533 C 214.995 103.166,215.913 102.154,216.358 101.283 C 217.198 99.636,218.635 98.271,220.725 97.133 C 221.399 96.766,222.317 95.776,222.766 94.933 C 223.900 92.801,224.804 91.867,226.188 91.395 C 226.841 91.172,227.776 90.362,228.265 89.595 C 230.012 86.857,230.978 85.876,232.664 85.130 C 233.975 84.551,234.551 83.980,235.133 82.687 C 236.023 80.707,237.199 79.560,239.386 78.540 C 240.596 77.976,241.067 77.467,241.371 76.400 C 241.838 74.755,242.768 73.848,245.103 72.756 C 246.277 72.207,246.978 71.549,247.358 70.639 C 248.793 67.205,252.429 66.361,260.183 67.665 M75.400 257.140 C 76.720 257.766,78.498 258.755,79.350 259.336 C 80.203 259.917,82.269 260.889,83.941 261.496 C 86.316 262.359,87.420 263.044,88.990 264.631 C 90.096 265.747,91.694 267.058,92.543 267.542 C 97.464 270.353,108.392 281.870,108.398 284.252 C 108.399 284.772,109.086 285.665,110.160 286.546 C 111.638 287.757,112.224 288.710,113.819 292.494 C 114.864 294.972,116.145 297.560,116.665 298.245 C 121.386 304.457,117.975 307.348,104.671 308.412 C 99.169 308.852,98.188 309.050,94.060 310.546 C 89.441 312.220,85.371 312.727,68.400 313.742 C 62.686 314.084,60.047 311.651,60.766 306.707 C 60.999 305.108,61.464 300.020,61.799 295.400 C 62.746 282.372,63.335 278.271,64.987 273.200 C 65.524 271.550,66.331 268.220,66.780 265.800 C 68.077 258.803,68.263 258.379,70.761 256.703 C 72.153 255.768,72.599 255.810,75.400 257.140 M4.313 372.281 C 3.518 372.481,3.045 374.458,3.259 376.691 L 3.403 378.200 1.701 378.060 L 0.000 377.919 0.000 388.960 L 0.000 400.000 45.143 400.000 L 90.286 400.000 90.543 397.541 C 90.945 393.695,90.844 380.030,90.408 379.215 C 90.113 378.664,89.335 378.414,87.263 378.206 L 84.509 377.930 84.263 375.294 C 84.128 373.843,83.788 372.515,83.508 372.341 C 82.994 372.021,5.582 371.962,4.313 372.281 M129.100 372.435 C 128.550 372.753,128.400 373.381,128.400 375.368 L 128.400 377.895 126.900 378.143 C 126.075 378.280,124.737 378.393,123.927 378.396 C 122.869 378.399,122.398 378.597,122.254 379.100 C 121.974 380.081,121.994 394.913,122.279 397.700 L 122.514 400.000 261.257 400.000 L 400.000 400.000 400.000 387.600 L 400.000 375.200 398.400 375.200 C 396.904 375.200,396.800 375.125,396.800 374.049 C 396.800 373.416,396.558 372.697,396.261 372.451 C 395.537 371.850,130.140 371.834,129.100 372.435 " stroke="none" fill="#444c54" fill-rule="evenodd"></path></g></svg>