<?xml version="1.0" encoding="UTF-8"?>
<svg xmlns="http://www.w3.org/2000/svg" xmlns:xlink="http://www.w3.org/1999/xlink" width="512pt" height="512pt" viewBox="0 0 512 512" version="1.1">
<g id="surface5861291">
<path style=" stroke:none;fill-rule:nonzero;fill:rgb(18.039216%,80.000001%,44.313726%);fill-opacity:1;" d="M 427.601562 221.199219 C 424.398438 210 420.398438 199.601562 414.800781 189.601562 L 450 154.398438 L 399.199219 104 L 364 139.199219 C 344.398438 128 322 122 298.800781 121.601562 L 286 73.601562 L 216.800781 92 L 229.601562 140 C 209.601562 151.601562 193.199219 168.398438 182 187.601562 L 134 174.800781 L 116 244.398438 L 164 257.199219 C 164 268.398438 165.601562 279.601562 168.398438 290.800781 C 171.601562 302 175.601562 312.398438 181.199219 322.398438 L 146 357.601562 L 196.800781 408 L 232 372.800781 C 251.601562 384 274 390 297.199219 390.398438 L 310 438.398438 L 379.199219 420 L 366.398438 372 C 386.398438 360.398438 402.800781 343.601562 414 324.398438 L 462 337.199219 L 480.398438 268 L 432.398438 255.199219 C 432.398438 243.601562 430.800781 232.398438 427.601562 221.199219 Z M 314.398438 316.398438 C 280.800781 325.199219 246.800781 305.601562 237.601562 272 C 228.398438 238.398438 248.398438 204.398438 282 195.199219 C 315.601562 186.398438 349.601562 206 358.800781 239.601562 C 367.601562 273.199219 347.601562 307.601562 314.398438 316.398438 Z M 314.398438 316.398438 "/>
<path style=" stroke:none;fill-rule:nonzero;fill:rgb(100%,100%,100%);fill-opacity:1;" d="M 387.601562 221.199219 C 384.398438 210 380.398438 199.601562 374.800781 189.601562 L 410 154.398438 L 359.199219 104 L 324 139.199219 C 304.398438 128 282 122 258.800781 121.601562 L 246 73.601562 L 176.800781 92 L 189.601562 140 C 169.601562 151.601562 153.199219 168.398438 142 187.601562 L 94 174.800781 L 76 244.398438 L 124 257.199219 C 124 268.398438 125.601562 279.601562 128.398438 290.800781 C 131.601562 302 135.601562 312.398438 141.199219 322.398438 L 106 357.601562 L 156.800781 408 L 192 372.800781 C 211.601562 384 234 390 257.199219 390.398438 L 270 438.398438 L 339.199219 420 L 326.398438 372 C 346.398438 360.398438 362.800781 343.601562 374 324.398438 L 422 337.199219 L 440.398438 268 L 392.398438 255.199219 C 392.398438 243.601562 390.800781 232.398438 387.601562 221.199219 Z M 274.398438 316.398438 C 240.800781 325.199219 206.800781 305.601562 197.601562 272 C 188.398438 238.398438 208.398438 204.398438 242 195.199219 C 275.601562 186.398438 309.601562 206 318.800781 239.601562 C 327.601562 273.199219 307.601562 307.601562 274.398438 316.398438 Z M 274.398438 316.398438 "/>
<path style=" stroke:none;fill-rule:nonzero;fill:rgb(24.705882%,29.019609%,32.941177%);fill-opacity:1;" d="M 270 450 C 264.800781 450 260 446.398438 258.398438 441.199219 L 248 402 C 229.601562 400.800781 211.199219 395.601562 194.398438 387.601562 L 165.601562 416.398438 C 160.800781 421.199219 153.199219 421.199219 148.800781 416.398438 L 97.601562 365.601562 C 92.800781 360.800781 92.800781 353.199219 97.601562 348.800781 L 126.398438 320 C 122.398438 311.601562 119.199219 302.800781 116.800781 294 C 114.398438 284.800781 112.800781 275.601562 112 266.398438 L 72.800781 256 C 69.601562 255.199219 67.199219 253.199219 65.601562 250.398438 C 64 247.601562 63.601562 244.398438 64.398438 241.199219 L 82.800781 172 C 83.601562 168.800781 85.601562 166.398438 88.398438 164.800781 C 91.199219 163.199219 94.398438 162.800781 97.601562 163.601562 L 136.800781 174 C 147.199219 158.398438 160.398438 145.199219 176 134.800781 L 165.601562 95.601562 C 164 89.199219 167.601562 82.800781 174 80.800781 L 243.199219 62.398438 C 249.601562 60.800781 256 64.398438 258 70.800781 L 268.398438 110 C 286.800781 111.199219 305.199219 116.398438 322 124.398438 L 350.800781 95.601562 C 355.199219 91.199219 363.199219 91.199219 367.601562 95.601562 L 418.398438 146.398438 C 423.199219 151.199219 423.199219 158.800781 418.398438 163.199219 L 389.601562 192 C 393.601562 200.398438 396.800781 209.199219 399.199219 218 C 401.601562 227.199219 403.199219 236.398438 404 245.601562 L 443.199219 256 C 449.601562 257.601562 453.199219 264.398438 451.601562 270.800781 L 433.199219 340 C 432.398438 343.199219 430.398438 345.601562 427.601562 347.199219 C 424.800781 348.800781 421.601562 349.199219 418.398438 348.398438 L 379.199219 338 C 368.800781 353.601562 355.601562 366.800781 340 377.199219 L 350.398438 416.398438 C 352 422.800781 348.398438 429.199219 342 431.199219 L 272.800781 449.601562 C 272 450 270.800781 450 270 450 Z M 192 360.800781 C 194 360.800781 196 361.199219 198 362.398438 C 216 372.800781 236.398438 378 257.199219 378.398438 C 262.398438 378.398438 267.199219 382 268.800781 387.199219 L 278.398438 423.601562 L 324.398438 411.199219 L 314.800781 374.800781 C 313.601562 369.601562 315.601562 364 320.398438 361.199219 C 338.398438 350.800781 353.199219 335.601562 363.601562 318 C 366.398438 313.199219 372 311.199219 377.199219 312.398438 L 413.601562 322 L 426 276 L 389.601562 266.398438 C 384.398438 265.199219 380.800781 260.398438 380.800781 254.800781 C 380.800781 244.398438 379.199219 234 376.800781 224 C 374 214 370 204.398438 365.199219 195.199219 C 362.398438 190.398438 363.199219 184.800781 367.199219 180.800781 L 393.601562 154.398438 L 360 120.800781 L 333.601562 147.199219 C 329.601562 151.199219 324 152 319.199219 149.199219 C 301.199219 138.800781 280.800781 133.601562 260 133.199219 C 254.800781 133.199219 250 129.601562 248.398438 124.398438 L 238.800781 88 L 192 100.800781 L 201.601562 137.199219 C 202.800781 142.398438 200.800781 148 196 150.800781 C 178 161.199219 163.199219 176.398438 152.800781 194 C 150 198.800781 144.398438 200.800781 139.199219 199.601562 L 102.800781 190 L 90.398438 236 L 126.800781 245.601562 C 132 246.800781 135.601562 251.601562 135.601562 257.199219 C 135.601562 267.601562 137.199219 278 139.601562 288 C 142.398438 298 146.398438 307.601562 151.199219 316.800781 C 154 321.601562 153.199219 327.199219 149.199219 331.199219 L 122.800781 357.601562 L 156.398438 391.199219 L 183.199219 364.800781 C 185.601562 362 188.800781 360.800781 192 360.800781 Z M 258 330.800781 C 245.199219 330.800781 232.398438 327.601562 220.800781 320.800781 C 203.601562 310.800781 191.199219 294.800781 186 275.601562 C 180.800781 256.398438 183.601562 236.398438 193.601562 218.800781 C 203.601562 201.601562 219.601562 189.199219 238.800781 184 C 278.398438 173.199219 319.601562 197.199219 330.398438 236.800781 C 335.601562 256 332.800781 276 322.800781 293.601562 C 312.800781 310.800781 296.800781 323.199219 277.601562 328.398438 C 270.800781 330 264.398438 330.800781 258 330.800781 Z M 274.398438 316.398438 Z M 258 205.199219 C 253.601562 205.199219 249.199219 205.601562 244.800781 206.800781 C 231.601562 210.398438 220.800781 218.800781 214 230.398438 C 207.199219 242 205.601562 255.601562 208.800781 268.800781 C 212.398438 282 220.800781 292.800781 232.398438 299.601562 C 244 306.398438 257.601562 308 270.800781 304.800781 C 284 301.199219 294.800781 292.800781 301.601562 281.199219 C 308.398438 269.601562 310 256 306.800781 242.800781 C 300.800781 220.398438 280.398438 205.199219 258 205.199219 Z M 258 205.199219 "/>
</g>
</svg>
